<?xml version="1.0" standalone="no"?>
<!DOCTYPE svg PUBLIC "-//W3C//DTD SVG 20010904//EN"
 "http://www.w3.org/TR/2001/REC-SVG-20010904/DTD/svg10.dtd">
<svg version="1.0" xmlns="http://www.w3.org/2000/svg"
 width="640.000000pt" height="640.000000pt" viewBox="0 0 640.000000 640.000000"
 preserveAspectRatio="xMidYMid meet">
<metadata>
Created by potrace 1.14, written by Peter Selinger 2001-2017
</metadata>
<g transform="translate(0.000000,640.000000) scale(0.100000,-0.100000)"
fill="#000000" stroke="none">
<path d="M3378 6353 c7 -3 16 -2 19 1 4 3 -2 6 -13 5 -11 0 -14 -3 -6 -6z"/>
<path d="M1425 6339 c-9 -13 -6 -16 30 -25 l30 -7 -19 22 c-21 23 -32 26 -41
10z"/>
<path d="M3118 6343 c6 -2 18 -2 25 0 6 3 1 5 -13 5 -14 0 -19 -2 -12 -5z"/>
<path d="M3630 6340 c0 -5 9 -10 20 -10 11 0 20 5 20 10 0 6 -9 10 -20 10 -11
0 -20 -4 -20 -10z"/>
<path d="M3726 6336 c4 -11 -13 -15 -83 -20 -90 -7 -196 -16 -503 -41 -96 -8
-213 -16 -260 -19 -47 -3 -166 -12 -265 -21 -429 -37 -655 -49 -655 -33 0 18
31 40 50 35 11 -3 18 -1 14 4 -3 5 4 9 15 9 12 0 21 7 21 15 0 18 -2 18 -32 6
-79 -31 -107 -45 -102 -52 3 -5 -2 -9 -10 -9 -9 0 -16 5 -16 10 0 6 -11 10
-25 10 -14 0 -25 -4 -25 -8 0 -9 -17 -10 -195 -21 -120 -7 -120 -7 -85 -23
l35 -15 -35 -6 c-19 -3 -159 -15 -310 -27 -151 -11 -308 -23 -347 -26 l-73 -6
0 26 c0 14 -8 29 -17 34 -10 5 -92 12 -183 16 -164 7 -385 20 -552 32 -74 5
-88 4 -88 -9 0 -12 25 -16 133 -21 421 -20 549 -27 615 -32 l73 -6 -5 -61
c-13 -146 -18 -317 -8 -317 10 0 22 124 22 231 0 41 5 70 13 76 6 6 55 13 107
17 100 6 196 14 615 46 143 11 289 22 325 25 36 3 153 12 260 21 107 9 227 18
265 20 39 2 151 10 250 19 213 18 851 68 1155 90 118 9 220 18 226 20 6 2 15
0 21 -3 8 -6 32 -275 88 -1027 8 -99 19 -247 25 -330 7 -82 16 -161 21 -173 7
-19 4 -30 -16 -54 -30 -36 -33 -86 -6 -119 16 -20 18 -35 14 -91 -5 -60 -4
-68 13 -75 16 -7 19 -19 20 -79 1 -56 5 -75 20 -90 40 -40 90 -71 138 -87 44
-14 54 -14 111 2 60 17 116 52 159 100 16 17 18 27 10 49 -12 34 -37 39 -70
13 -34 -27 -89 -42 -125 -34 -24 5 -29 10 -29 37 0 17 -9 42 -20 56 -22 28
-27 89 -7 95 6 2 58 6 115 9 145 8 146 9 150 57 9 137 -99 240 -237 226 -45
-5 -62 -3 -71 8 -17 21 -69 19 -113 -5 -20 -11 -39 -20 -42 -20 -3 0 -5 27 -5
60 0 70 -18 64 218 80 85 6 319 24 520 40 202 16 369 27 373 24 4 -2 10 -46
14 -96 3 -51 9 -102 12 -113 5 -18 5 -18 -11 -2 -15 14 -38 17 -140 17 -133 0
-151 -6 -144 -52 2 -15 13 -25 36 -32 l32 -9 0 -68 0 -69 -43 0 c-38 0 -50 6
-90 45 -56 54 -62 85 -17 102 24 9 30 17 30 41 0 18 -6 32 -16 36 -9 3 -67 6
-129 6 -62 0 -120 -3 -129 -6 -10 -4 -16 -18 -16 -38 0 -29 4 -33 38 -42 l37
-9 5 -92 c5 -83 8 -95 29 -109 l23 -17 -26 -24 c-23 -21 -26 -32 -26 -87 0
-68 -6 -79 -53 -90 -25 -6 -28 -11 -25 -39 3 -28 7 -32 37 -35 46 -5 81 5 81
23 0 22 23 18 38 -5 10 -16 23 -20 71 -20 55 0 59 2 63 25 6 29 -9 52 -37 57
-18 3 -20 12 -23 77 -2 45 2 78 9 87 8 10 35 14 91 14 l79 0 -3 -87 c-3 -83
-4 -88 -26 -91 -27 -4 -45 -35 -37 -63 6 -18 14 -19 148 -17 l142 3 3 40 c2
22 7 44 12 50 16 21 -15 124 -53 175 -36 49 -37 51 -37 140 0 80 2 90 18 90
10 0 28 7 40 16 21 14 22 14 22 -8 0 -13 7 -112 15 -221 9 -109 13 -202 9
-209 -4 -6 -1 -9 7 -6 10 4 13 22 12 72 l-2 66 34 0 c19 0 35 -3 36 -7 10
-100 3 -123 -37 -123 -28 0 -43 -23 -36 -57 l5 -25 191 4 c178 3 194 5 231 27
22 13 46 28 54 35 8 6 16 9 18 7 12 -11 62 25 78 57 11 20 21 39 23 42 1 2 14
-9 27 -25 13 -17 27 -26 32 -22 4 5 0 14 -10 21 -21 16 -22 26 -2 26 8 0 15
-5 15 -11 0 -8 4 -8 14 0 17 14 204 5 223 -11 7 -5 18 -6 25 -2 6 4 29 7 50 5
21 -1 38 2 38 8 0 12 -110 22 -272 24 -119 2 -143 6 -118 22 20 13 10 65 -19
97 -24 27 -36 33 -74 33 -25 1 -51 6 -59 11 -32 25 -108 44 -176 44 l-72 0 0
35 c0 29 4 35 20 35 51 0 100 49 100 100 0 55 -63 109 -113 97 -85 -21 -104
-28 -119 -47 -10 -13 -28 -20 -50 -20 -46 0 -60 -12 -56 -46 2 -23 10 -31 38
-41 29 -9 35 -15 32 -36 -1 -15 7 -34 24 -51 l27 -26 -24 -26 c-16 -17 -24
-39 -25 -65 -3 -79 -1 -75 -39 -71 -33 4 -35 6 -35 43 0 30 3 37 15 33 8 -4
15 -2 15 4 0 5 -8 12 -18 14 -16 5 -20 20 -26 99 -20 296 -29 370 -46 379 -14
8 -130 0 -940 -64 -96 -7 -178 -11 -182 -7 -13 12 -21 226 -9 249 10 18 9 22
-4 22 -14 0 -21 48 -18 135 0 11 -3 45 -8 75 -4 30 -17 179 -29 330 -11 151
-25 328 -30 392 -6 64 -10 131 -10 149 l0 32 123 -7 c345 -19 852 -49 1217
-71 135 -8 369 -22 520 -30 151 -8 312 -18 358 -21 58 -5 82 -3 82 5 0 6 -1
11 -3 11 -2 0 -104 7 -228 15 -123 8 -318 19 -434 25 -510 25 -941 57 -965 72
-15 10 -23 10 -28 2 -7 -12 -108 -11 -119 0 -4 3 1 6 11 6 9 0 14 5 11 10 -4
7 -17 4 -35 -7 -24 -14 -34 -15 -54 -5 -16 7 -26 8 -26 2 0 -6 -16 -8 -37 -5
-131 18 -526 25 -667 12 -64 -7 -87 -6 -82 2 4 6 0 11 -8 11 -9 0 -13 -6 -10
-14z m-1816 -145 c0 -5 -9 -7 -20 -4 -11 3 -20 7 -20 9 0 2 9 4 20 4 11 0 20
-4 20 -9z m3740 -1411 c0 -13 -7 -20 -19 -20 -11 0 -22 -4 -26 -10 -6 -10 -34
-11 -132 -3 -35 2 -63 8 -63 13 0 5 30 11 68 14 91 7 121 11 129 19 15 15 43
7 43 -13z m-1129 -1 c37 -12 105 -69 81 -69 -7 0 -12 4 -12 9 0 13 -100 41
-145 41 -56 0 -128 -43 -153 -93 -15 -29 -18 -46 -11 -58 12 -23 12 -32 0 -24
-14 8 -32 -30 -25 -50 4 -9 12 -14 20 -11 14 5 38 -50 28 -66 -3 -5 0 -15 6
-23 10 -12 9 -15 -10 -15 -17 0 -21 4 -17 20 3 11 0 20 -5 20 -6 0 -5 6 2 15
11 13 10 18 -6 30 -16 12 -22 12 -41 -1 -22 -14 -23 -13 -23 11 0 13 9 48 19
76 15 38 17 55 9 68 -8 13 -4 26 17 56 28 43 54 58 75 45 7 -4 35 0 64 11 61
22 76 23 127 8z m439 -21 c-35 -16 -206 -16 -222 0 -9 9 16 12 118 11 103 0
124 -2 104 -11z m315 -4 c-53 -15 -205 -10 -205 7 0 5 57 9 128 8 l127 0 -50
-15z m-800 -44 c27 -10 61 -72 50 -90 -4 -6 -35 -10 -71 -10 -59 0 -64 2 -64
21 0 24 37 89 50 89 5 0 20 -4 35 -10z m1035 -20 c0 -16 -4 -30 -10 -30 -11 0
-14 43 -3 53 11 12 13 8 13 -23z m-671 -1 c-9 -5 -10 -11 -2 -21 5 -7 8 -33 6
-57 -4 -55 -22 -80 -24 -33 -1 18 -3 47 -4 65 -3 47 4 67 21 60 12 -4 13 -8 3
-14z m334 4 c4 -3 2 -12 -4 -20 -6 -7 -8 -13 -3 -13 5 0 8 -26 7 -57 -1 -32
-2 -64 -3 -70 0 -14 -140 -18 -222 -7 -39 6 -46 10 -44 29 1 16 6 21 19 17 10
-3 21 -11 24 -18 4 -11 30 -14 104 -14 l99 0 0 80 c0 73 6 91 23 73z m-608
-43 c3 -5 1 -10 -4 -10 -6 0 -11 5 -11 10 0 6 2 10 4 10 3 0 8 -4 11 -10z m10
-31 c4 -5 0 -18 -9 -28 -13 -14 -39 -19 -115 -25 -56 -3 -110 -2 -123 3 -31
13 -20 14 150 19 55 2 65 5 69 22 6 22 18 26 28 9z m972 -73 c-23 -33 -27 -57
-30 -183 -2 -91 -10 -103 -74 -118 -46 -9 -41 9 7 28 l40 15 0 131 c0 122 1
130 20 136 13 4 23 19 27 37 l6 30 13 -23 c10 -20 9 -28 -9 -53z m270 3 c24
-12 48 -30 54 -41 6 -11 24 -24 40 -30 35 -12 29 -28 -10 -28 -23 0 -30 5 -34
28 -8 40 -62 62 -169 69 -49 3 -91 10 -94 15 -3 4 34 8 82 8 69 0 97 -5 131
-21z m-961 -138 c-15 -24 -22 -43 -16 -46 6 -4 7 -12 3 -18 -4 -7 -9 -21 -10
-32 -6 -39 -103 -100 -103 -65 0 6 9 10 19 10 42 0 62 31 66 104 3 54 7 71 23
82 11 7 23 26 28 41 l8 28 4 -32 c2 -21 -5 -45 -22 -72z m885 70 c16 -16 29
-38 29 -48 0 -17 -5 -18 -57 -12 -32 4 -70 8 -84 8 -23 1 -26 5 -22 29 8 50
11 52 58 52 38 0 52 -5 76 -29z m-562 -55 c0 -34 1 -74 1 -91 1 -43 -17 -70
-54 -83 -39 -15 -46 -15 -46 -2 0 5 11 12 25 16 37 9 45 32 45 132 0 70 3 89
14 89 11 0 14 -16 15 -61z m641 14 c-8 -5 -9 -10 -2 -14 11 -7 10 -39 -3 -86
-8 -32 -68 -78 -111 -86 -37 -7 -110 3 -100 14 4 3 24 5 46 3 85 -6 158 69
148 152 -3 29 -1 33 15 29 13 -3 15 -7 7 -12z m-1574 -27 c-10 -10 -19 5 -10
18 6 11 8 11 12 0 2 -7 1 -15 -2 -18z m984 19 c0 -13 -12 -22 -22 -16 -10 6
-1 24 13 24 5 0 9 -4 9 -8z m-895 -58 c0 -16 5 -32 10 -36 6 -4 2 -8 -7 -8
-10 0 -18 -7 -18 -15 0 -11 -8 -15 -25 -12 -36 4 -39 13 -16 36 12 12 21 29
21 39 0 10 3 22 7 26 14 13 28 -1 28 -30z m925 26 c0 -5 -7 -10 -15 -10 -8 0
-15 5 -15 10 0 6 7 10 15 10 8 0 15 -4 15 -10z m454 0 l58 0 -7 -27 c-3 -16
-16 -38 -28 -51 -18 -19 -30 -22 -72 -20 l-50 3 -3 54 c-3 52 -2 53 20 47 13
-3 49 -6 82 -6z m-1457 -38 c-17 -16 -17 -16 -13 8 2 14 5 27 5 30 1 2 6 -1
13 -8 10 -9 8 -16 -5 -30z m357 -38 c-52 -42 -93 -57 -138 -50 -23 4 -50 8
-61 10 -11 1 -20 8 -20 14 0 6 -9 18 -20 26 -28 21 -16 20 30 -4 67 -34 165
-23 204 24 7 9 18 13 23 10 6 -4 -3 -17 -18 -30z m656 16 c0 -5 -9 -10 -21
-10 -11 0 -17 5 -14 10 3 6 13 10 21 10 8 0 14 -4 14 -10z m-320 -75 c19 -7
28 -14 20 -14 -8 0 -28 6 -45 14 -39 17 -21 18 25 0z m355 -5 l20 -9 -20 0
c-11 0 -27 4 -35 9 -13 9 -13 10 0 9 8 0 24 -4 35 -9z"/>
<path d="M5780 6340 c20 -13 43 -13 35 0 -3 6 -16 10 -28 10 -18 0 -19 -2 -7
-10z"/>
<path d="M105 6330 c-4 -6 7 -10 25 -10 18 0 29 4 25 10 -3 6 -15 10 -25 10
-10 0 -22 -4 -25 -10z"/>
<path d="M2055 6330 c-23 -6 -15 -8 37 -9 43 -1 68 -5 71 -13 4 -10 6 -10 6 0
1 6 9 13 19 13 22 2 -57 18 -83 17 -11 0 -33 -4 -50 -8z"/>
<path d="M3218 6333 c12 -2 30 -2 40 0 9 3 -1 5 -23 4 -22 0 -30 -2 -17 -4z"/>
<path d="M6088 6333 c6 -2 18 -2 25 0 6 3 1 5 -13 5 -14 0 -19 -2 -12 -5z"/>
<path d="M0 6310 c0 -11 4 -20 10 -20 5 0 6 7 3 17 -4 11 -3 14 6 9 7 -5 16
-17 19 -27 7 -18 9 -18 31 -2 23 15 23 17 6 30 -11 7 -31 13 -47 13 -21 0 -28
-5 -28 -20z"/>
<path d="M648 6323 c6 -2 18 -2 25 0 6 3 1 5 -13 5 -14 0 -19 -2 -12 -5z"/>
<path d="M1116 6311 c-4 -5 3 -7 14 -4 23 6 26 13 6 13 -8 0 -17 -4 -20 -9z"/>
<path d="M1360 6313 c1 -14 25 -39 44 -47 19 -7 172 -8 289 -2 94 5 79 17 -18
15 -50 -1 -119 1 -155 5 -36 4 -77 7 -91 7 -15 -1 -32 6 -39 14 -13 16 -30 20
-30 8z"/>
<path d="M1970 6310 c0 -5 -7 -10 -17 -10 -9 0 -14 -2 -11 -5 9 -9 58 6 52 16
-7 12 -24 11 -24 -1z"/>
<path d="M1856 6292 c-3 -5 -23 -7 -45 -6 -30 1 -41 -2 -41 -12 0 -11 12 -13
58 -8 72 7 85 11 77 24 -7 12 -42 13 -49 2z"/>
<path d="M2286 6280 c-33 -21 -54 -50 -36 -50 20 0 50 20 50 34 0 7 10 18 23
24 13 6 16 11 7 11 -8 0 -28 -9 -44 -19z"/>
<path d="M2930 6290 c-13 -8 -13 -10 2 -10 9 0 20 5 23 10 8 13 -5 13 -25 0z"/>
<path d="M1178 6243 c12 -2 30 -2 40 0 9 3 -1 5 -23 4 -22 0 -30 -2 -17 -4z"/>
<path d="M2188 6233 c7 -3 16 -2 19 1 4 3 -2 6 -13 5 -11 0 -14 -3 -6 -6z"/>
<path d="M1440 6206 l-25 -14 28 1 c15 1 29 8 32 15 6 15 -4 15 -35 -2z"/>
<path d="M6352 6130 c-7 -18 11 -315 36 -600 l9 -105 2 125 c0 69 -3 161 -8
205 -5 44 -13 146 -17 228 -6 132 -5 147 10 147 9 0 16 5 16 10 0 19 -41 10
-48 -10z"/>
<path d="M5644 6117 c3 -10 6 -21 6 -23 0 -13 21 -1 31 19 11 19 10 20 -3 10
-11 -10 -17 -10 -28 0 -10 10 -12 9 -6 -6z"/>
<path d="M5910 6100 c0 -5 5 -10 10 -10 6 0 10 5 10 10 0 6 -4 10 -10 10 -5 0
-10 -4 -10 -10z"/>
<path d="M5630 6076 c0 -9 5 -16 10 -16 6 0 10 4 10 9 0 6 -4 13 -10 16 -5 3
-10 -1 -10 -9z"/>
<path d="M5948 6078 c9 -9 15 -9 24 0 9 9 7 12 -12 12 -19 0 -21 -3 -12 -12z"/>
<path d="M5690 6070 c0 -5 5 -10 11 -10 5 0 7 5 4 10 -3 6 -8 10 -11 10 -2 0
-4 -4 -4 -10z"/>
<path d="M5892 5968 c-14 -14 -16 -38 -3 -38 8 0 23 41 17 47 -1 1 -8 -3 -14
-9z"/>
<path d="M6035 5954 c-12 -12 -13 -19 -4 -30 15 -19 20 -18 12 2 -4 11 1 22
12 30 10 8 14 14 8 14 -7 0 -19 -7 -28 -16z"/>
<path d="M460 5805 c0 -12 20 -35 31 -35 4 0 9 7 12 14 4 10 1 13 -10 9 -8 -3
-19 0 -24 8 -5 8 -9 9 -9 4z"/>
<path d="M4200 5783 c1 -20 20 -37 29 -28 7 7 4 14 -9 23 -11 7 -20 9 -20 5z"/>
<path d="M450 5745 c0 -8 5 -15 10 -15 6 0 10 7 10 15 0 8 -4 15 -10 15 -5 0
-10 -7 -10 -15z"/>
<path d="M810 5754 c-8 -3 -29 -12 -47 -20 -17 -8 -35 -14 -40 -14 -4 0 -32
-16 -61 -35 -39 -27 -52 -42 -52 -60 0 -26 -16 -41 -41 -37 -24 4 -92 -83
-122 -153 -26 -63 -57 -174 -57 -205 0 -17 44 -40 76 -40 8 0 25 22 38 49 32
63 119 157 167 182 63 32 139 34 269 9 81 -16 131 -20 171 -16 68 8 183 39
224 60 17 9 33 16 37 16 5 0 -28 -43 -72 -95 -152 -181 -195 -271 -207 -434
-3 -50 -7 -91 -8 -91 0 0 -30 11 -66 25 -86 34 -163 42 -212 22 -20 -9 -37
-12 -37 -7 0 5 4 11 9 14 5 3 6 25 4 49 -3 25 0 136 6 247 8 141 9 206 1 214
-7 7 -10 2 -10 -17 0 -23 -12 -246 -24 -450 -2 -37 0 -70 5 -73 19 -11 -2 -23
-34 -18 -27 5 -38 0 -74 -36 -40 -41 -83 -115 -83 -145 0 -17 30 -35 59 -35
11 0 41 11 67 25 49 26 84 32 84 15 0 -5 -9 -10 -19 -10 -15 0 -21 -8 -23 -32
l-3 -33 -135 4 c-74 1 -137 4 -140 6 -3 1 -95 6 -205 9 -110 4 -207 9 -215 11
-15 5 -48 -11 -40 -18 7 -5 1014 -45 1019 -41 11 10 -15 15 -108 21 -100 6
-101 6 -102 32 0 14 -2 34 -4 44 -3 14 4 17 38 17 64 -1 161 -61 210 -130 22
-32 21 -40 -2 -40 -39 0 -436 -72 -445 -81 -6 -5 -2 -54 11 -126 17 -97 19
-123 8 -144 -14 -31 -5 -48 38 -67 39 -17 42 -16 75 19 58 62 180 40 226 -41
42 -72 16 -199 -59 -284 -14 -16 -25 -32 -25 -35 0 -9 -155 -168 -220 -226
-49 -45 -81 -71 -170 -143 -22 -18 -23 -22 -11 -44 7 -14 23 -37 36 -52 19
-22 28 -26 52 -20 15 4 33 10 38 14 15 11 121 49 200 72 137 40 192 49 335 55
80 3 150 10 157 15 7 6 11 20 10 31 -3 31 27 28 31 -3 2 -14 7 -29 11 -33 4
-4 45 -14 92 -21 73 -12 86 -12 100 1 11 9 33 13 65 11 45 -3 49 -5 54 -32 3
-19 16 -34 37 -46 18 -9 31 -19 29 -21 -2 -2 -11 -62 -20 -134 -10 -71 -18
-131 -20 -132 -2 -2 -41 -10 -87 -18 -46 -8 -95 -17 -109 -19 -14 -3 -31 -5
-38 -5 -7 -1 -10 -6 -7 -11 6 -10 16 -9 149 15 43 8 80 15 82 15 2 0 4 -14 4
-32 0 -76 20 -1 41 155 26 188 17 176 106 136 55 -25 58 -24 92 14 139 156
201 229 201 237 0 21 -47 60 -77 63 -17 2 -38 8 -45 14 -7 6 -30 16 -50 22
-35 12 -60 31 -40 31 5 0 7 19 3 43 -7 46 -7 151 -1 326 2 77 0 116 -7 118 -6
2 -11 -2 -10 -9 3 -70 -5 -208 -11 -208 -9 0 -56 249 -49 256 2 2 23 -2 46
-11 53 -18 143 -89 202 -157 71 -83 150 -206 136 -211 -9 -3 -9 -10 2 -28 8
-13 21 -36 28 -51 9 -17 19 -25 28 -21 9 3 19 -4 25 -18 6 -13 23 -45 39 -71
16 -25 28 -48 26 -50 -3 -2 -62 4 -132 13 -70 9 -130 15 -132 13 -8 -7 7 -15
36 -20 148 -22 225 -29 230 -21 3 5 26 -26 51 -69 28 -48 76 -109 124 -156 75
-75 94 -108 63 -108 -8 0 -15 -4 -15 -10 0 -25 27 -9 60 35 14 18 13 19 -1 8
-9 -7 -19 -10 -23 -6 -4 4 3 12 14 18 35 19 410 386 410 401 0 21 -52 84 -69
84 -7 0 -47 -32 -87 -70 -41 -39 -80 -70 -88 -70 -24 0 -68 53 -123 146 -29
49 -57 94 -63 101 -5 7 -10 16 -10 20 0 4 -13 26 -28 49 -15 23 -47 74 -72
113 -106 170 -231 310 -348 388 l-61 41 130 88 c71 49 140 98 153 109 13 11
92 67 175 125 93 65 151 111 151 122 0 9 -25 47 -56 83 -56 66 -56 67 -35 81
11 8 21 22 21 30 0 8 11 32 25 52 20 30 25 49 25 102 0 36 -6 76 -13 90 -8 15
-17 43 -20 64 -8 50 -31 74 -76 82 -20 3 -55 15 -79 26 -57 27 -118 26 -144
-2 -11 -11 -32 -23 -48 -27 -60 -11 -89 -77 -67 -148 5 -16 -6 -30 -61 -72
-198 -153 -242 -190 -252 -215 -16 -37 -10 -48 35 -63 35 -13 41 -12 69 8 17
12 40 29 50 39 19 17 20 17 35 0 61 -67 81 -94 76 -102 -3 -6 0 -8 7 -5 7 2
31 -18 53 -46 22 -27 50 -61 63 -75 l22 -25 -62 -44 c-35 -24 -101 -70 -147
-102 -47 -32 -111 -76 -142 -98 -219 -152 -204 -144 -205 -116 0 14 -3 42 -5
61 l-4 35 68 1 c37 1 67 -3 67 -8 0 -5 5 -6 11 -2 23 14 -14 29 -84 34 l-72 5
-3 33 c-2 17 -7 32 -13 32 -11 0 -11 -1 1 -75 20 -132 21 -147 9 -161 -6 -8
-15 -14 -20 -14 -5 0 -9 87 -9 194 l0 194 43 34 c59 46 92 77 87 81 -3 2 -18
11 -33 21 l-29 18 23 24 c16 17 20 27 12 35 -8 8 -22 4 -49 -15 -21 -14 -41
-26 -45 -26 -16 0 35 262 68 348 15 39 15 44 -1 60 -22 25 -21 28 12 40 22 8
41 36 99 151 79 155 81 167 20 192 -26 11 -31 9 -55 -18 -35 -38 -143 -257
-177 -358 -15 -44 -31 -89 -36 -100 -7 -17 -32 -126 -44 -190 -16 -91 -26
-231 -23 -328 2 -78 -1 -118 -8 -121 -6 -2 -37 -7 -68 -11 -53 -7 -58 -6 -63
13 -3 12 -14 24 -24 27 -33 11 -50 49 -47 102 3 47 3 48 35 45 35 -3 33 -9 48
143 7 80 46 287 55 300 4 6 11 26 15 45 14 65 67 192 127 299 l59 106 -32 27
c-37 33 -60 35 -103 9 -61 -36 -168 -65 -241 -64 -92 1 -99 2 -147 19 -56 20
-61 19 -82 -21 -11 -19 -22 -35 -27 -35 -4 0 -21 -14 -39 -30 -26 -24 -35 -28
-46 -19 -16 13 -1 39 22 39 8 0 14 6 14 13 0 8 9 22 20 32 28 25 25 49 -7 65
-29 13 -226 24 -253 14z m207 -30 c18 -4 31 -10 28 -14 -8 -13 -67 -17 -109
-8 -90 20 -291 -68 -271 -119 7 -19 -46 -63 -75 -63 -17 0 -32 -11 -47 -35
-13 -19 -23 -40 -23 -47 0 -7 -9 -24 -19 -37 -10 -14 -17 -31 -14 -38 3 -7 0
-13 -6 -13 -6 0 -10 -3 -9 -7 4 -14 -41 -103 -51 -103 -10 0 20 117 45 178 7
18 30 57 50 88 30 45 41 54 59 50 31 -8 65 20 65 53 0 35 20 53 93 86 92 42
166 50 284 29z m663 -14 c0 -3 -17 -12 -37 -19 -21 -7 -51 -19 -68 -26 -105
-43 -244 -58 -343 -35 -41 10 -43 9 -87 -32 -62 -60 -72 -68 -92 -70 -37 -3
-53 2 -53 18 0 11 5 14 16 10 19 -7 110 50 119 74 17 47 28 51 96 35 120 -28
225 -16 344 39 55 25 74 30 88 22 9 -6 17 -13 17 -16z m233 -37 c-19 -20 -51
-70 -70 -112 -19 -42 -43 -85 -53 -96 -10 -11 -25 -47 -34 -80 -8 -33 -29
-112 -47 -175 -35 -129 -37 -141 -46 -260 -7 -99 -7 -501 0 -607 5 -79 -9
-194 -25 -204 -6 -4 -8 -11 -4 -17 7 -12 -33 -122 -45 -122 -5 0 -6 -6 -3 -13
7 -20 -150 -197 -175 -197 -6 0 -11 -4 -11 -9 0 -11 -30 -28 -225 -122 -22
-10 -35 -19 -30 -19 6 0 -21 -12 -60 -25 -38 -14 -104 -42 -145 -63 -85 -44
-151 -63 -130 -36 12 14 250 134 266 134 20 0 249 119 311 162 112 77 185 178
224 308 22 72 23 90 24 490 l1 415 27 115 c41 169 72 261 137 395 62 131 114
202 135 185 9 -8 4 -19 -22 -47z m-398 -103 c-3 -5 0 -10 7 -10 7 0 -4 -17
-24 -38 -48 -48 -68 -70 -68 -75 0 -2 -24 -29 -52 -60 -71 -75 -120 -131 -120
-137 0 -3 -15 -27 -33 -55 -18 -27 -36 -69 -40 -92 -4 -24 -11 -45 -16 -49 -5
-3 -9 -10 -9 -15 0 -6 6 -7 13 -3 7 5 7 1 -2 -10 -18 -22 -23 -66 -8 -66 6 0
2 -7 -9 -15 -12 -9 -14 -14 -6 -15 8 0 10 -5 6 -12 -5 -7 -9 -33 -11 -58 -6
-81 -5 -79 -37 -55 -11 8 -30 15 -42 15 -12 0 -27 7 -34 15 -7 9 -20 13 -28
10 -8 -3 -21 0 -29 7 -8 6 -44 12 -80 12 -57 1 -67 -2 -85 -23 -13 -18 -31
-25 -57 -27 -25 -1 -47 -11 -66 -28 -15 -14 -24 -26 -20 -26 5 0 -7 -13 -25
-30 -18 -16 -37 -30 -42 -30 -13 0 29 75 64 116 28 31 35 35 65 29 29 -5 38
-2 64 26 29 31 31 32 103 26 65 -5 115 -22 219 -75 4 -2 7 38 7 90 1 222 60
331 324 606 53 55 89 81 71 52z m975 -95 c11 -10 26 -14 42 -10 30 8 66 -21
49 -38 -15 -15 -14 -21 10 -48 15 -17 18 -30 13 -49 -4 -14 -8 -41 -9 -59 -2
-26 -11 -42 -36 -63 -18 -15 -41 -28 -51 -28 -9 0 -20 -4 -23 -10 -10 -17 -25
-11 -18 7 5 13 2 15 -15 11 -23 -6 -30 6 -11 18 6 3 16 1 22 -5 15 -15 30 -14
21 2 -5 8 -2 7 10 -2 14 -12 19 -12 29 -1 9 10 9 11 0 6 -7 -4 -13 -3 -13 2 0
5 10 13 23 16 21 7 20 8 -10 19 -17 7 -35 16 -40 21 -5 5 0 6 10 3 23 -9 67 2
67 15 0 6 -11 7 -25 4 -18 -5 -23 -3 -19 8 3 7 -2 16 -10 19 -9 4 -16 13 -16
22 0 9 -9 15 -22 14 -22 0 -22 -1 -3 -9 16 -6 14 -8 -12 -7 -18 0 -33 3 -33 6
0 3 -11 7 -25 7 -14 1 -22 -2 -19 -7 3 -5 12 -9 20 -9 14 0 14 -2 0 -15 -8 -8
-21 -15 -28 -15 -9 0 -10 2 -1 8 8 5 6 14 -9 32 -14 18 -18 20 -14 6 5 -14 2
-17 -10 -12 -8 3 -22 0 -29 -7 -46 -41 -96 -81 -142 -114 -29 -21 -78 -59
-110 -84 -32 -25 -68 -49 -80 -53 -45 -14 -13 21 100 110 254 199 236 183 234
223 -2 35 -1 36 34 35 31 -1 37 3 47 29 10 27 14 29 48 24 20 -3 44 -13 54
-22z m-10 -235 c0 -5 -7 -10 -15 -10 -8 0 -15 5 -15 10 0 6 7 10 15 10 8 0 15
-4 15 -10z m30 -106 c0 -8 -4 -12 -10 -9 -5 3 -10 10 -10 16 0 5 5 9 10 9 6 0
10 -7 10 -16z m-95 -4 c17 -8 16 -8 -7 -7 -16 1 -28 5 -28 9 0 10 9 9 35 -2z
m199 -100 c45 -52 46 -55 25 -62 -12 -5 -27 -7 -33 -4 -6 2 -3 5 7 5 9 1 17 6
17 11 0 6 -3 9 -7 9 -19 -3 -27 2 -15 9 9 6 3 18 -23 43 -33 32 -46 55 -26 47
5 -1 29 -28 55 -58z m-284 -80 c0 -5 -5 -10 -11 -10 -5 0 -7 5 -4 10 3 6 8 10
11 10 2 0 4 -4 4 -10z m-547 -30 c3 -10 2 -19 -2 -18 -3 1 -22 -6 -41 -15 -47
-21 -52 -12 -12 24 38 34 48 36 55 9z m607 -90 c0 -5 -4 -10 -10 -10 -5 0 -10
5 -10 10 0 6 5 10 10 10 6 0 10 -4 10 -10z m0 -34 c0 -13 -110 -96 -127 -96
-3 0 -13 -7 -22 -16 -25 -24 -162 -121 -198 -140 -18 -9 -33 -20 -33 -25 0 -5
-6 -9 -13 -9 -8 0 -33 -18 -56 -40 -23 -22 -45 -40 -49 -40 -10 0 -94 -56
-117 -78 -23 -23 -75 -35 -75 -18 1 6 24 27 53 47 29 19 126 87 216 150 424
296 421 294 421 265z m-1614 -141 c1 -14 -2 -25 -7 -25 -5 0 -9 11 -9 25 0 33
15 33 16 0z m633 -14 c16 -12 20 -20 12 -25 -7 -4 -18 -2 -26 4 -8 6 -18 9
-24 6 -5 -3 -11 1 -14 8 -5 13 5 23 23 25 3 0 16 -8 29 -18z m192 -431 c-28
-203 -130 -336 -347 -450 -85 -45 -264 -123 -269 -118 -2 2 58 55 133 118 209
176 264 240 319 370 26 62 27 74 31 266 l4 202 59 6 c32 4 62 12 66 19 12 18
15 -328 4 -413z m-451 406 c0 -2 -7 -7 -16 -10 -8 -3 -12 -2 -9 4 6 10 25 14
25 6z m-17 -59 c4 3 7 1 7 -6 0 -17 -32 -10 -38 9 -4 12 -3 13 10 3 8 -7 18
-10 21 -6z m-34 -74 c10 -46 14 -93 12 -141 l-1 -22 -40 20 c-22 11 -68 27
-101 36 -60 15 -62 15 -91 -6 -26 -19 -34 -20 -53 -10 -18 10 -29 8 -61 -8
-42 -22 -89 -63 -97 -84 -10 -28 -25 9 -37 91 -13 97 -15 95 68 105 32 4 129
20 217 35 88 16 163 30 167 30 3 1 11 -20 17 -46z m62 12 c12 8 12 6 0 -8 -10
-13 -10 -17 -1 -17 7 0 10 -7 6 -15 -3 -8 -1 -15 5 -15 6 0 7 -5 2 -12 -4 -7
-8 -46 -9 -87 -1 -74 -12 -95 -41 -84 -7 3 -13 0 -13 -7 0 -6 -4 -9 -10 -5 -5
3 -7 12 -4 19 5 13 -28 30 -54 26 -8 0 -19 4 -26 9 -20 17 -99 19 -114 4 -16
-16 -74 -17 -89 -2 -9 9 -23 2 -56 -25 -47 -39 -65 -65 -44 -67 7 0 5 -3 -3
-6 -8 -3 -25 -15 -37 -26 -32 -29 -38 -16 -14 31 28 55 63 95 104 117 32 17
36 17 51 3 19 -20 55 -13 77 15 16 19 21 20 70 9 30 -7 83 -28 118 -47 l63
-34 -5 102 c-3 56 -8 113 -12 127 -7 24 -7 24 7 6 10 -13 20 -16 29 -11z m239
-5 c0 -5 -2 -10 -4 -10 -3 0 -8 5 -11 10 -3 6 -1 10 4 10 6 0 11 -4 11 -10z
m758 -64 c73 -51 165 -137 163 -150 -1 -3 2 -6 5 -5 10 1 63 -75 58 -83 -8
-13 -25 -9 -23 5 3 26 -2 37 -16 37 -8 0 -15 4 -15 9 0 6 -13 18 -29 27 -19
11 -27 23 -23 32 4 11 1 14 -11 9 -11 -4 -17 -1 -17 8 0 8 -7 15 -15 15 -8 0
-14 6 -12 13 1 6 -4 11 -11 9 -8 -1 -11 2 -7 8 5 9 0 11 -21 9 -3 0 -15 12
-26 26 -12 16 -26 24 -35 20 -11 -4 -13 -1 -9 11 4 12 2 15 -9 10 -8 -3 -15
-1 -15 5 0 6 -7 9 -15 5 -8 -3 -15 -4 -15 -2 0 10 13 36 17 36 3 0 39 -24 81
-54z m-948 24 c0 -5 -4 -10 -9 -10 -6 0 -13 5 -16 10 -3 6 1 10 9 10 9 0 16
-4 16 -10z m935 -50 c3 -5 1 -10 -4 -10 -6 0 -11 5 -11 10 0 6 2 10 4 10 3 0
8 -4 11 -10z m-342 -167 c9 -2 15 -8 12 -13 -3 -4 15 -124 40 -266 24 -142 42
-260 40 -263 -3 -2 -40 6 -82 17 -121 33 -138 35 -153 17 -7 -8 -27 -15 -44
-15 -18 0 -37 -5 -43 -11 -15 -15 -33 -3 -33 22 0 12 -10 23 -26 29 l-26 10
72 77 c99 106 145 207 166 360 7 57 5 56 77 36z m628 -100 c13 -16 12 -17 -3
-4 -10 7 -18 15 -18 17 0 8 8 3 21 -13z m-291 -17 c0 -3 -4 -8 -10 -11 -5 -3
-10 -1 -10 4 0 6 5 11 10 11 6 0 10 -2 10 -4z m-1000 -41 c0 -16 -27 -27 -36
-14 -3 5 -3 16 0 24 6 17 36 9 36 -10z m1035 15 c3 -5 1 -10 -4 -10 -6 0 -11
5 -11 10 0 6 2 10 4 10 3 0 8 -4 11 -10z m-1155 -18 c0 -22 37 -56 43 -39 2 7
8 8 13 3 5 -5 -1 -15 -13 -23 -13 -9 -23 -24 -23 -35 0 -38 -34 -124 -72 -181
-39 -57 -299 -327 -316 -327 -4 0 -18 -11 -30 -25 -12 -14 -26 -25 -32 -25 -5
0 -10 -5 -10 -11 0 -13 -21 -33 -38 -36 -6 -2 -17 -4 -23 -5 -37 -9 -6 30 88
109 178 151 316 301 371 407 22 42 26 65 27 128 0 43 3 78 8 78 4 0 7 -8 7
-18z m1385 8 c3 -6 -1 -7 -9 -4 -18 7 -21 14 -7 14 6 0 13 -4 16 -10z m54 -1
c-17 -11 -39 -12 -39 -1 0 4 12 8 27 9 19 1 22 -1 12 -8z m-1264 -27 c-2 -9
-4 -18 -4 -19 -1 -2 -1 -6 0 -10 1 -9 -59 -33 -82 -33 -31 0 -21 25 14 35 17
6 36 20 41 31 11 25 36 21 31 -4z m985 4 c0 -9 -30 -14 -35 -6 -4 6 3 10 14
10 12 0 21 -2 21 -4z m304 -18 c-3 -4 -11 -5 -19 -1 -21 7 -19 12 4 10 11 0
18 -5 15 -9z m-27 -24 c-3 -3 -12 -4 -19 -1 -8 3 -5 6 6 6 11 1 17 -2 13 -5z
m33 -28 c0 -3 -4 -8 -10 -11 -5 -3 -10 -1 -10 4 0 6 5 11 10 11 6 0 10 -2 10
-4z m-239 -63 c13 -16 12 -17 -3 -4 -10 7 -18 15 -18 17 0 8 8 3 21 -13z m306
-29 c-3 -3 -12 -4 -19 -1 -8 3 -5 6 6 6 11 1 17 -2 13 -5z m-293 -25 c-6 -11
-24 -2 -24 11 0 5 7 7 15 4 8 -4 12 -10 9 -15z m9 -38 c-3 -11 -11 -17 -18
-14 -17 6 -8 33 10 33 8 0 11 -8 8 -19z m44 -17 c-3 -3 -12 -4 -19 -1 -8 3 -5
6 6 6 11 1 17 -2 13 -5z m333 -74 c0 -13 -11 -13 -30 0 -12 8 -11 10 8 10 12
0 22 -4 22 -10z m348 -13 c2 -9 -1 -17 -6 -17 -6 0 -24 -12 -40 -27 -92 -86
-103 -93 -149 -93 -27 0 -42 4 -38 10 3 6 -1 10 -10 10 -9 0 -14 4 -10 9 3 5
1 12 -5 16 -5 3 -10 1 -10 -6 0 -7 -3 -10 -6 -6 -3 3 -2 13 3 22 8 14 11 14
28 -5 34 -38 72 -26 150 45 70 65 87 72 93 42z m-1498 -11 c0 -17 -39 -25 -69
-14 -33 12 -16 28 30 28 26 0 39 -4 39 -14z m870 4 c0 -5 -2 -10 -4 -10 -3 0
-8 5 -11 10 -3 6 -1 10 4 10 6 0 11 -4 11 -10z m-535 -42 c33 -12 89 -35 125
-53 36 -17 72 -30 82 -28 24 6 33 -16 12 -32 -11 -7 -21 -10 -24 -6 -3 4 -26
13 -52 20 -26 8 -45 17 -42 22 3 5 -4 9 -14 9 -11 0 -25 7 -32 15 -6 8 -38 17
-71 21 -32 4 -59 11 -59 16 0 13 -69 5 -137 -14 -44 -13 -56 -13 -87 0 -20 8
-34 18 -31 23 3 4 17 4 31 -1 16 -7 32 -7 44 0 10 5 32 10 48 10 16 0 35 7 43
16 16 19 73 13 164 -18z m885 -8 c0 -5 -5 -10 -11 -10 -5 0 -7 5 -4 10 3 6 8
10 11 10 2 0 4 -4 4 -10z m-319 -27 c13 -17 13 -17 -6 -3 -11 8 -22 16 -24 17
-2 2 0 3 6 3 6 0 17 -8 24 -17z m-1001 -147 c0 -3 -4 -8 -10 -11 -5 -3 -10 -1
-10 4 0 6 5 11 10 11 6 0 10 -2 10 -4z m1160 -46 c0 -5 -4 -10 -10 -10 -5 0
-10 5 -10 10 0 6 5 10 10 10 6 0 10 -4 10 -10z m-810 -13 c0 -2 -10 -13 -23
-25 -22 -21 -23 -21 -24 -2 -1 13 3 17 13 13 8 -3 14 0 14 6 0 6 5 11 10 11 6
0 10 -1 10 -3z"/>
<path d="M2487 5419 c18 -35 27 -33 17 5 -3 14 -12 26 -19 26 -11 0 -10 -6 2
-31z"/>
<path d="M2460 5420 c0 -5 5 -10 10 -10 6 0 10 5 10 10 0 6 -4 10 -10 10 -5 0
-10 -4 -10 -10z"/>
<path d="M2400 5411 c0 -5 6 -12 13 -14 6 -3 -6 -6 -28 -6 l-40 -1 24 -19 c29
-23 70 -24 93 -4 21 18 15 33 -13 33 -10 0 -19 5 -19 10 0 6 -7 10 -15 10 -8
0 -15 -4 -15 -9z"/>
<path d="M1215 3811 c-3 -6 -11 -8 -17 -5 -6 4 -9 1 -6 -6 7 -21 25 -23 32 -4
8 20 1 30 -9 15z"/>
<path d="M1180 3760 c-13 -8 -12 -10 3 -10 9 0 17 5 17 10 0 12 -1 12 -20 0z"/>
<path d="M1080 4381 c0 -6 4 -13 10 -16 6 -3 7 1 4 9 -7 18 -14 21 -14 7z"/>
<path d="M1756 3885 c4 -8 10 -12 15 -9 14 8 10 24 -6 24 -9 0 -12 -6 -9 -15z"/>
<path d="M1740 3850 c0 -5 5 -10 10 -10 6 0 10 5 10 10 0 6 -4 10 -10 10 -5 0
-10 -4 -10 -10z"/>
<path d="M4190 5730 c0 -5 5 -10 10 -10 6 0 10 5 10 10 0 6 -4 10 -10 10 -5 0
-10 -4 -10 -10z"/>
<path d="M5729 5551 c-23 -19 -24 -20 -5 -38 18 -17 18 -17 12 4 -5 15 -2 25
11 32 10 5 15 12 12 16 -3 3 -17 -3 -30 -14z"/>
<path d="M29 5532 c11 -20 10 -26 -5 -36 -10 -8 -13 -15 -7 -19 6 -4 18 5 28
19 9 14 15 27 13 28 -2 1 -12 8 -22 16 -18 14 -19 14 -7 -8z"/>
<path d="M316 5505 c4 -8 10 -15 14 -15 4 0 10 7 14 15 4 10 -1 15 -14 15 -13
0 -18 -5 -14 -15z"/>
<path d="M290 5470 c0 -5 7 -10 15 -10 8 0 15 5 15 10 0 6 -7 10 -15 10 -8 0
-15 -4 -15 -10z"/>
<path d="M4891 5465 c-1 -6 4 -16 11 -23 9 -9 8 -15 -8 -26 -10 -8 -16 -18
-12 -22 4 -4 16 4 27 17 24 29 26 39 7 39 -8 0 -17 6 -19 13 -3 6 -6 7 -6 2z"/>
<path d="M5151 5441 c-9 -6 -11 -16 -6 -27 6 -16 8 -16 13 -4 2 8 9 21 15 28
11 14 -1 16 -22 3z"/>
<path d="M160 5394 c0 -5 6 -18 13 -29 13 -17 14 -17 20 4 3 13 1 19 -5 15 -6
-4 -14 0 -19 7 -5 8 -9 9 -9 3z"/>
<path d="M150 5340 c0 -5 5 -10 10 -10 6 0 10 5 10 10 0 6 -4 10 -10 10 -5 0
-10 -4 -10 -10z"/>
<path d="M3810 5307 c0 -11 31 -57 39 -57 4 0 8 7 8 15 0 8 -6 15 -13 15 -7 0
-18 8 -23 18 -6 9 -11 13 -11 9z"/>
<path d="M6027 5230 c4 -14 0 -20 -11 -20 -9 0 -16 -4 -16 -10 0 -14 11 -12
34 5 11 8 16 21 13 30 -9 22 -26 18 -20 -5z"/>
<path d="M3815 5230 c3 -5 8 -10 11 -10 2 0 4 5 4 10 0 6 -5 10 -11 10 -5 0
-7 -4 -4 -10z"/>
<path d="M5301 5224 c0 -11 3 -14 6 -6 3 7 2 16 -1 19 -3 4 -6 -2 -5 -13z"/>
<path d="M5446 5128 c5 -22 3 -28 -10 -28 -9 0 -16 -4 -16 -10 0 -24 26 -10
60 34 14 18 13 19 -4 13 -12 -5 -23 -3 -28 5 -5 8 -6 2 -2 -14z"/>
<path d="M2136 5013 c10 -18 22 -33 26 -33 15 0 8 17 -19 41 l-26 24 19 -32z"/>
<path d="M130 4982 c0 -7 5 -22 10 -33 9 -15 7 -21 -5 -25 -19 -8 -20 -24 0
-24 8 0 15 5 15 10 0 6 9 20 20 32 11 12 20 27 19 32 0 6 -3 5 -6 -1 -7 -19
-30 -16 -42 5 -7 10 -11 12 -11 4z"/>
<path d="M5834 4976 c-14 -11 -16 -18 -7 -26 8 -9 13 -7 17 8 4 12 15 23 24
25 14 4 14 5 1 6 -8 0 -24 -5 -35 -13z"/>
<path d="M419 4953 c15 -30 14 -43 -4 -43 -8 0 -15 -4 -15 -10 0 -17 21 -11
41 13 20 24 25 42 8 32 -6 -4 -17 1 -25 11 -14 18 -14 18 -5 -3z"/>
<path d="M2130 4960 c0 -5 5 -10 10 -10 6 0 10 5 10 10 0 6 -4 10 -10 10 -5 0
-10 -4 -10 -10z"/>
<path d="M6391 4924 c0 -11 3 -14 6 -6 3 7 2 16 -1 19 -3 4 -6 -2 -5 -13z"/>
<path d="M3406 4834 c-26 -25 -20 -76 12 -107 15 -15 33 -27 38 -27 6 0 16
-11 22 -24 14 -32 -1 -351 -18 -371 -18 -21 -43 -18 -58 6 -10 15 -21 19 -45
17 -31 -3 -32 -2 -35 41 -2 25 -10 54 -18 65 -18 26 -18 63 1 100 19 37 19 74
-1 144 -40 136 -157 167 -308 81 -85 -48 -109 -72 -109 -107 0 -90 120 -107
137 -19 8 42 40 77 70 77 35 0 67 -41 69 -89 l2 -43 -110 -45 c-60 -24 -129
-48 -153 -52 -24 -5 -53 -18 -65 -29 -18 -19 -21 -31 -19 -103 3 -92 9 -108
53 -140 28 -20 36 -21 73 -11 25 6 47 7 58 1 31 -16 71 -9 127 22 l55 31 17
-21 c38 -47 97 -48 157 -1 l26 21 8 -21 c7 -20 14 -20 135 -18 125 3 128 4
131 26 4 30 -11 48 -47 55 -25 5 -30 12 -36 48 -8 49 3 211 15 204 4 -3 11
-17 15 -32 3 -15 15 -46 26 -70 10 -23 19 -45 19 -49 0 -4 9 -26 20 -48 10
-23 25 -59 33 -80 16 -48 39 -66 64 -50 14 9 68 123 145 304 l10 25 9 -24 c9
-23 2 -206 -8 -223 -2 -5 -14 -8 -27 -8 -12 0 -27 -5 -34 -12 -17 -17 -15 -55
4 -62 9 -3 78 -6 155 -6 l139 0 0 35 c0 30 -4 35 -27 41 -51 11 -53 13 -53 51
0 21 -4 54 -10 73 -9 32 -8 36 20 58 27 21 30 29 30 77 0 44 -5 59 -25 81 -41
44 -32 77 25 91 25 7 36 16 38 32 7 45 -11 51 -149 51 -118 0 -129 -1 -129
-18 0 -10 -18 -35 -39 -54 -31 -28 -41 -45 -46 -82 -6 -36 -4 -51 9 -65 9 -10
16 -21 16 -26 0 -15 -34 -85 -41 -85 -3 0 -16 22 -27 49 -13 31 -28 52 -42 56
-18 6 -21 12 -16 38 4 20 0 43 -9 60 -8 16 -19 45 -25 65 -13 48 -27 65 -73
91 -47 27 -157 30 -181 5z m97 -41 c-2 -13 1 -22 5 -22 4 1 31 1 60 0 52 -1
64 -11 40 -34 -22 -21 -108 -9 -108 15 0 6 -12 8 -30 5 -29 -6 -41 5 -20 18 6
3 10 15 10 26 0 15 6 20 23 17 16 -2 21 -9 20 -25z m-284 -32 c35 -24 41 -48
7 -26 -14 10 -26 14 -26 10 0 -4 -6 -3 -12 2 -45 33 -147 2 -213 -66 -22 -22
-46 -40 -52 -41 -20 0 -15 27 8 49 24 22 128 79 168 92 35 11 91 2 120 -20z
m866 -7 c-27 -7 -63 -14 -78 -14 -39 0 -88 -54 -106 -116 -8 -27 -34 -91 -57
-141 -34 -73 -48 -93 -64 -93 -11 0 -20 5 -20 10 0 6 6 10 13 10 7 0 32 41 55
91 38 82 42 97 36 141 -6 42 -4 52 16 73 13 14 31 25 41 25 9 0 19 7 23 15 4
12 24 15 98 14 l93 -1 -50 -14z m-543 -63 c-1 -7 -4 -49 -6 -94 -3 -45 -8
-122 -12 -172 -9 -123 -11 -139 -12 -146 -2 -8 -66 -39 -81 -39 -22 0 -10 18
20 30 17 7 35 25 41 39 11 29 30 380 21 394 -3 5 3 7 13 5 11 -2 18 -10 16
-17z m-325 -89 c6 -47 1 -52 -123 -102 -70 -28 -176 -100 -149 -100 6 0 4 -4
-4 -9 -11 -7 -12 -13 -4 -23 19 -23 10 -70 -15 -79 -27 -10 -37 7 -29 46 2 14
0 28 -4 31 -32 20 47 102 119 124 20 6 46 15 57 20 11 5 43 19 72 30 58 25 66
37 57 89 -5 28 -4 33 6 25 6 -6 14 -30 17 -52z m767 23 c-5 -21 -3 -25 15 -25
14 0 21 -6 21 -20 0 -11 -5 -20 -11 -20 -5 0 -7 6 -3 13 5 8 2 8 -9 -2 -19
-15 -23 -41 -7 -41 6 0 10 5 10 10 0 6 5 10 10 10 17 0 11 -18 -8 -24 -15 -5
-17 -15 -14 -71 3 -47 1 -65 -8 -65 -9 0 -9 -4 -2 -12 9 -11 9 -27 3 -95 -2
-23 -101 -56 -101 -34 0 7 13 14 30 17 16 4 34 11 39 18 5 6 11 85 13 176 3
147 8 190 24 190 2 0 2 -11 -2 -25z m-359 -54 c-6 -5 -25 10 -25 20 0 5 6 4
14 -3 8 -7 12 -15 11 -17z m86 -37 c11 -13 9 -14 -17 -8 -16 4 -37 8 -46 8
-10 0 -18 4 -18 8 0 15 67 8 81 -8z m-492 -120 c-1 -33 1 -66 5 -72 7 -12 -32
-42 -83 -62 -44 -18 -103 -20 -97 -4 3 7 0 15 -7 17 -7 2 -9 8 -5 12 4 4 14 2
23 -5 20 -16 93 -5 123 20 20 16 22 27 22 102 0 59 3 79 10 68 6 -8 10 -42 9
-76z m-49 1 l0 -75 -36 -15 c-47 -19 -48 -19 -75 9 -27 28 -31 71 -8 92 12 11
103 61 117 63 1 1 2 -33 2 -74z m546 -32 c-6 -6 -36 9 -36 18 0 5 9 4 20 -3
10 -7 18 -14 16 -15z m-1 -33 c3 -5 1 -10 -4 -10 -6 0 -11 5 -11 10 0 6 2 10
4 10 3 0 8 -4 11 -10z m-345 -60 c0 -4 -15 -10 -34 -12 -25 -3 -36 0 -39 12
-3 12 4 15 35 12 21 -2 38 -8 38 -12z m258 -35 c3 -3 -6 -5 -20 -5 -14 0 -31
7 -38 15 -10 12 -7 13 21 5 17 -5 34 -12 37 -15z m487 5 c19 -8 19 -9 -2 -9
-12 -1 -25 4 -28 9 -7 12 2 12 30 0z"/>
<path d="M5430 4690 c0 -5 5 -10 11 -10 5 0 7 5 4 10 -3 6 -8 10 -11 10 -2 0
-4 -4 -4 -10z"/>
<path d="M6260 4677 c-25 -13 -40 -47 -21 -47 6 0 11 7 11 15 0 9 15 22 33 30
17 8 25 14 17 14 -8 1 -26 -5 -40 -12z"/>
<path d="M5410 4666 c0 -9 5 -16 10 -16 6 0 10 4 10 9 0 6 -4 13 -10 16 -5 3
-10 -1 -10 -9z"/>
<path d="M5420 4555 c0 -8 4 -15 9 -15 5 0 11 7 15 15 3 9 0 15 -9 15 -8 0
-15 -7 -15 -15z"/>
<path d="M4620 4500 c0 -5 4 -10 9 -10 6 0 13 5 16 10 3 6 -1 10 -9 10 -9 0
-16 -4 -16 -10z"/>
<path d="M4610 4470 c-8 -5 -11 -12 -7 -16 4 -4 13 -2 19 4 15 15 7 24 -12 12z"/>
<path d="M6010 4310 c0 -5 7 -10 16 -10 8 0 12 5 9 10 -3 6 -10 10 -16 10 -5
0 -9 -4 -9 -10z"/>
<path d="M400 4306 c0 -14 21 -46 29 -46 5 0 12 7 15 16 4 10 2 13 -6 8 -6 -4
-17 1 -25 11 -7 11 -13 15 -13 11z"/>
<path d="M4242 4178 c4 -51 18 -239 32 -418 14 -179 28 -344 30 -367 l4 -43
-37 0 c-20 0 -67 5 -106 11 -38 5 -155 21 -260 34 -319 41 -662 85 -820 105
-168 22 -185 23 -185 12 0 -4 64 -16 143 -25 78 -10 171 -22 207 -27 36 -5
191 -26 345 -45 154 -20 363 -47 465 -60 102 -13 266 -34 365 -46 99 -12 183
-25 187 -28 4 -4 -1 -76 -12 -161 -45 -357 -71 -556 -95 -740 -25 -192 -26
-220 -5 -220 6 0 9 4 6 8 -2 4 6 95 19 202 37 303 112 883 116 899 5 20 -42
42 -104 47 -82 7 -200 24 -206 29 -7 8 -8 17 -16 158 -6 103 -5 127 6 131 8 2
88 9 179 15 651 46 923 70 932 84 4 6 5 66 2 132 l-7 120 127 -3 126 -3 0
-780 c0 -513 3 -779 10 -779 6 0 10 68 10 185 0 156 2 187 15 191 8 4 15 12
15 20 0 8 5 14 10 14 6 0 10 7 10 15 0 22 -17 18 -23 -5 -7 -26 -27 -26 -27 1
0 11 5 17 10 14 13 -8 13 18 0 31 -6 6 -11 213 -12 559 l-3 550 -135 5 -135 5
-10 92 c-5 50 -13 95 -17 99 -11 10 -11 7 9 -233 9 -117 14 -215 11 -218 -4
-5 -106 -14 -438 -40 -254 -19 -480 -37 -565 -44 -55 -5 -103 -7 -106 -5 -4 2
-10 41 -13 86 -4 46 -11 137 -16 203 -5 66 -12 162 -15 213 -3 52 -8 98 -11
103 -15 25 -19 0 -12 -83z"/>
<path d="M390 4240 c0 -5 7 -10 15 -10 8 0 15 5 15 10 0 6 -7 10 -15 10 -8 0
-15 -4 -15 -10z"/>
<path d="M261 4144 c11 -14 11 -18 -4 -29 -21 -15 -22 -25 -2 -25 8 0 15 7 15
15 0 8 5 15 10 15 16 0 11 27 -6 34 -25 9 -27 7 -13 -10z"/>
<path d="M3331 4135 c-1 -15 28 -55 40 -55 5 0 9 7 9 15 0 8 -6 12 -13 9 -8
-3 -18 5 -25 18 -6 13 -11 18 -11 13z"/>
<path d="M4765 4106 c-13 -9 -16 -19 -10 -32 8 -18 8 -18 13 1 2 11 9 26 14
33 14 16 6 15 -17 -2z"/>
<path d="M658 4104 c-3 -3 -2 -20 2 -37 4 -18 23 -121 41 -229 18 -109 37
-194 41 -190 9 9 -59 442 -71 455 -4 4 -10 5 -13 1z"/>
<path d="M2911 4095 c0 -5 6 -19 14 -29 12 -16 18 -17 27 -8 9 9 9 12 -1 12
-8 0 -20 8 -27 18 -7 9 -13 13 -13 7z"/>
<path d="M4346 4065 c-3 -8 -1 -15 4 -15 13 0 22 18 11 24 -5 3 -11 -1 -15 -9z"/>
<path d="M3330 4060 c0 -5 7 -10 16 -10 8 0 12 5 9 10 -3 6 -10 10 -16 10 -5
0 -9 -4 -9 -10z"/>
<path d="M3395 4060 c3 -5 8 -10 11 -10 2 0 4 5 4 10 0 6 -5 10 -11 10 -5 0
-7 -4 -4 -10z"/>
<path d="M4385 4050 c3 -5 10 -10 16 -10 5 0 9 5 9 10 0 6 -7 10 -16 10 -8 0
-12 -4 -9 -10z"/>
<path d="M2910 4031 c0 -6 5 -13 10 -16 6 -3 10 1 10 9 0 9 -4 16 -10 16 -5 0
-10 -4 -10 -9z"/>
<path d="M4941 3534 c11 -14 11 -18 -4 -29 -13 -9 -15 -14 -5 -17 7 -3 18 7
26 20 10 21 10 27 0 34 -22 13 -31 9 -17 -8z"/>
<path d="M4654 3406 c17 -26 17 -30 2 -38 -9 -5 -16 -13 -16 -18 0 -14 24 -2
37 18 9 15 6 23 -15 43 l-27 24 19 -29z"/>
<path d="M787 3363 c-3 -5 8 -85 24 -178 16 -94 32 -188 35 -210 4 -22 13 -45
20 -51 10 -8 70 -1 233 27 121 20 225 40 230 44 6 3 11 3 11 -2 0 -4 -11 -15
-24 -23 -100 -63 -147 -103 -144 -123 4 -30 -12 -47 -32 -35 -22 14 -83 -24
-106 -67 -10 -19 -24 -35 -31 -35 -19 0 -61 -44 -123 -130 -59 -80 -73 -102
-92 -137 -9 -18 -20 -23 -52 -23 -36 0 -45 -6 -90 -55 -29 -31 -57 -73 -64
-96 -14 -45 -7 -102 14 -120 8 -6 14 -17 14 -23 0 -7 11 -23 24 -35 23 -22 24
-26 20 -144 l-4 -122 -73 0 -72 0 -7 100 c-4 55 -17 255 -28 445 -32 514 -36
569 -43 576 -7 7 -418 -14 -426 -22 -13 -13 24 -13 204 -3 108 6 201 7 205 2
4 -4 12 -96 19 -203 41 -691 51 -851 56 -900 2 -30 7 -107 10 -170 4 -63 15
-248 25 -410 11 -162 24 -376 30 -475 5 -99 13 -228 16 -287 l7 -107 -24 -5
c-13 -2 -118 -9 -234 -16 -256 -13 -315 -19 -315 -33 0 -6 29 -8 83 -4 325 25
565 28 677 9 127 -21 420 -63 515 -73 50 -5 111 -14 137 -19 80 -16 205 -24
212 -12 3 6 13 68 22 139 9 70 20 132 23 136 7 7 95 -2 366 -38 223 -30 499
-66 655 -85 144 -18 495 -64 825 -109 77 -11 185 -25 240 -32 55 -6 105 -15
110 -19 6 -5 21 -9 35 -9 86 -3 291 -21 300 -26 20 -12 55 24 55 58 l0 32 100
0 c126 0 900 -24 980 -30 70 -5 532 -23 848 -33 155 -5 217 -4 217 4 0 7 -64
13 -192 18 -209 7 -274 9 -833 31 -203 8 -505 19 -670 25 -393 14 -434 16
-442 23 -3 4 4 82 16 174 43 332 83 639 91 703 5 36 16 124 25 195 8 72 17
140 20 153 l5 22 628 0 c345 0 632 4 639 8 8 5 13 42 15 102 l3 95 65 11 c156
27 625 116 629 120 2 2 2 7 -1 10 -10 9 -397 -63 -415 -78 -7 -5 -17 -6 -24
-2 -8 5 -7 9 4 15 22 13 18 101 -6 126 -9 11 -17 29 -17 41 0 12 -11 29 -25
38 -20 13 -25 24 -25 60 0 33 -5 46 -20 54 -26 14 -25 34 1 52 15 10 21 24 21
53 0 53 11 71 47 78 33 7 49 40 31 62 -10 12 -43 15 -158 15 l-145 0 7 -52 c3
-29 6 -90 6 -135 0 -49 4 -83 10 -83 6 0 10 39 10 96 0 93 1 95 23 92 22 -3
22 -3 22 -208 0 -201 0 -205 -21 -208 -28 -4 -36 19 -22 59 6 17 8 55 5 84 -4
42 -12 62 -38 89 -17 20 -40 38 -50 41 -10 4 -27 26 -38 49 -16 36 -25 44 -54
50 -44 8 -78 -5 -106 -40 l-22 -28 3 54 c3 54 3 54 41 63 35 9 38 12 35 41
l-3 31 -73 3 c-41 2 -79 -2 -86 -7 -9 -7 -16 -7 -23 0 -16 16 -104 7 -117 -13
-13 -22 17 -58 49 -58 17 0 24 -8 29 -31 10 -52 7 -349 -4 -370 -6 -10 -21
-19 -33 -19 -13 0 -28 -5 -35 -12 -17 -17 -15 -65 4 -72 27 -10 258 -8 322 4
65 11 146 51 156 75 3 8 10 15 16 15 7 0 8 -6 0 -19 -16 -30 -12 -59 9 -71 11
-5 68 -10 127 -10 59 0 105 -2 103 -5 -3 -2 -36 -9 -75 -15 -38 -5 -86 -13
-106 -16 -34 -6 -38 -4 -38 15 0 11 -4 21 -10 21 -5 0 -11 -52 -12 -122 l-3
-123 -619 -3 c-341 -1 -623 1 -627 5 -4 5 -1 55 7 113 8 58 16 124 17 146 3
28 13 51 31 70 65 70 57 203 -15 257 -31 23 -87 37 -184 46 l-70 6 -3 53 c-3
55 -3 55 51 67 25 5 28 10 25 38 l-3 32 -143 1 c-126 2 -143 0 -152 -15 -13
-25 14 -61 45 -61 25 0 25 -1 41 -77 2 -12 -3 -42 -11 -65 -8 -24 -15 -55 -15
-69 0 -15 -7 -32 -15 -39 -11 -9 -14 -29 -12 -79 2 -60 5 -66 25 -69 31 -5 17
-22 -17 -22 -33 0 -51 -16 -51 -46 0 -43 19 -47 197 -42 144 3 175 7 215 25
l47 22 -4 -27 c-5 -33 -4 -23 -60 -467 -25 -198 -63 -495 -84 -660 -22 -165
-45 -347 -52 -403 -9 -72 -17 -106 -27 -109 -12 -5 -213 18 -422 47 -36 6
-191 26 -345 45 -154 20 -363 47 -465 60 -102 13 -241 31 -310 40 -69 8 -174
22 -235 30 -60 8 -252 33 -425 55 -173 22 -382 49 -464 60 -82 11 -150 20
-152 20 -7 0 -4 47 13 179 16 124 19 134 41 142 30 12 58 -6 41 -27 -48 -58
332 -94 526 -50 184 42 319 96 446 177 84 54 109 78 109 104 0 31 36 63 53 46
9 -10 8 -15 -7 -27 -11 -7 -16 -17 -13 -21 4 -4 26 13 50 37 31 32 35 38 14
25 -15 -10 -31 -14 -35 -10 -4 4 -1 10 6 12 45 16 202 200 202 237 0 21 -47
76 -65 76 -4 0 -23 -11 -41 -25 -35 -27 -49 -32 -38 -13 4 7 3 8 -5 4 -6 -4
-20 -2 -29 6 -15 11 -15 11 -5 -3 7 -9 10 -19 6 -23 -4 -4 0 -4 10 0 24 9 21
-8 -3 -24 -15 -9 -20 -9 -20 0 0 6 -3 8 -7 4 -5 -4 -8 -13 -8 -19 0 -30 -208
-146 -345 -192 -47 -16 -89 -32 -94 -36 -14 -12 12 -38 48 -47 40 -11 40 -34
-2 -46 -28 -8 -36 -6 -57 14 -13 12 -25 34 -27 49 -3 23 -8 26 -42 27 -33 0
-41 5 -55 31 -40 76 -55 100 -79 126 -14 15 -34 27 -44 27 -17 0 -18 21 -18
404 0 413 -4 464 -37 452 -10 -4 -26 2 -40 16 -50 47 -51 37 -45 -538 5 -513
4 -526 -14 -521 -10 3 -37 8 -59 12 -143 24 -314 115 -434 231 l-45 43 22 18
c153 126 302 286 346 369 29 55 30 63 34 219 4 134 2 168 -11 194 -13 26 -13
35 -2 59 9 18 15 97 19 247 4 121 7 227 7 235 1 8 29 38 63 67 l61 51 5 -261
c3 -144 9 -268 13 -275 5 -7 18 -10 31 -6 18 4 28 -1 40 -17 32 -47 37 -12 36
275 0 236 2 276 14 276 8 0 17 -4 21 -9 3 -5 22 -15 43 -22 20 -6 39 -15 42
-18 8 -11 226 -80 273 -87 23 -4 47 -10 52 -14 6 -4 40 -11 76 -14 l66 -7 59
53 c32 29 96 89 142 133 l85 81 -22 42 -21 42 -68 1 c-81 0 -290 23 -314 33
-13 6 -20 2 -27 -16 -9 -24 -81 -87 -81 -71 0 4 -4 2 -8 -5 -6 -9 -14 -7 -30
8 -24 23 -28 50 -12 81 17 30 -4 55 -57 69 -26 7 -52 16 -58 20 -17 12 -89 34
-103 31 -7 -1 -89 -64 -181 -139 -92 -75 -183 -148 -201 -162 -63 -48 -100
-83 -100 -94 0 -21 -17 -37 -42 -40 -13 -2 -59 -31 -101 -66 l-77 -63 0 -239
0 -238 25 -10 c38 -14 42 -49 19 -143 -4 -19 -1 -33 10 -46 19 -21 7 -36 -29
-36 -19 0 -20 -9 -27 -148 -8 -158 -18 -187 -81 -245 l-25 -24 -35 54 c-19 29
-49 82 -67 118 -17 36 -35 73 -41 82 -13 26 -11 30 12 23 12 -4 66 -10 120
-14 73 -5 99 -3 99 5 0 8 -39 15 -120 19 -66 4 -123 11 -126 16 -14 23 -44
223 -44 292 0 83 32 259 57 317 9 19 25 55 36 80 59 131 188 283 326 385 44
33 81 67 81 76 0 8 -10 25 -21 38 -21 23 -39 24 -83 6 -15 -6 -17 -5 -11 5 5
8 4 11 -2 7 -6 -4 -25 -9 -44 -11 -35 -5 -142 -24 -293 -50 -132 -24 -142 -22
-149 17 -3 17 -19 112 -36 211 -16 98 -32 180 -34 183 -3 2 -7 1 -10 -4z
m1226 -190 c4 -3 28 -14 54 -23 27 -10 62 -23 78 -30 l30 -13 -25 -7 c-14 -4
-31 -2 -37 3 -9 6 -13 6 -13 -2 0 -6 -5 -11 -11 -11 -5 0 -8 4 -4 9 3 5 -5 12
-17 16 -13 3 -33 11 -44 17 -16 7 -29 6 -55 -8 -20 -10 -28 -19 -21 -22 7 -2
-3 -13 -24 -24 -53 -28 -114 -79 -114 -95 0 -7 -7 -13 -15 -13 -35 0 -262
-201 -249 -221 3 -5 -23 -23 -58 -38 -35 -16 -83 -47 -106 -68 -42 -38 -43
-41 -45 -106 -1 -39 2 -67 8 -67 7 0 7 -3 0 -8 -14 -10 -17 -90 -4 -97 6 -5 6
-12 -2 -22 -9 -11 -10 -16 -1 -22 7 -4 8 -12 2 -21 -5 -8 -6 -26 -3 -41 6 -31
-22 -84 -31 -58 -3 8 -4 107 -3 220 l2 206 69 57 c46 38 77 56 96 56 31 0 44
13 54 50 3 14 27 41 53 60 25 19 51 40 57 45 6 6 56 46 111 90 54 44 131 106
170 137 69 56 85 65 98 51z m576 -141 c85 -4 136 -11 138 -18 4 -12 -43 -30
-62 -24 -5 1 -37 4 -70 6 -110 7 -160 12 -187 19 -21 5 -29 3 -34 -8 -8 -21
-108 -77 -136 -77 -13 1 -33 9 -45 19 -28 23 -30 35 -4 21 11 -5 30 -10 42
-10 29 0 105 49 118 76 8 19 13 20 58 12 26 -5 108 -12 182 -16z m-1169 -44
c0 -7 -27 -31 -61 -53 -33 -22 -64 -44 -67 -50 -4 -6 -22 -21 -39 -34 -18 -12
-33 -28 -33 -34 -1 -30 -66 -81 -92 -72 -19 7 -32 -5 -52 -48 -10 -22 -28 -42
-43 -48 -28 -10 -73 -54 -73 -70 0 -5 -4 -9 -9 -9 -11 0 -101 -134 -101 -150
0 -5 -4 -10 -9 -10 -5 0 -13 -10 -17 -22 -3 -13 -13 -31 -21 -40 -9 -10 -13
-26 -10 -37 3 -15 -2 -21 -22 -26 -14 -4 -21 -9 -15 -12 9 -3 8 -13 -3 -35
-10 -19 -12 -32 -5 -37 13 -8 6 -82 -9 -92 -10 -6 -10 -11 0 -23 11 -13 11
-16 -1 -16 -7 0 -14 -8 -15 -17 -5 -69 -13 -126 -17 -131 -3 -3 -1 -11 6 -19
8 -10 8 -17 0 -25 -17 -17 -15 -28 4 -28 14 0 15 -2 3 -17 -11 -13 -11 -17 -1
-20 14 -5 17 -43 3 -43 -6 0 -9 -9 -8 -20 1 -17 6 -20 32 -15 16 2 23 2 15 -2
-34 -14 -51 -53 -24 -53 14 0 14 -3 4 -15 -10 -12 -10 -15 4 -15 9 0 16 -5 16
-11 0 -5 -4 -8 -9 -4 -5 3 -12 1 -16 -5 -3 -6 0 -13 8 -16 8 -3 12 -14 10 -28
-4 -17 1 -25 16 -29 12 -3 21 -11 20 -19 0 -10 -2 -10 -6 0 -9 22 -25 13 -18
-10 4 -17 3 -19 -4 -8 -5 8 -9 19 -9 24 0 5 -4 12 -9 15 -6 3 -21 47 -34 96
-21 81 -24 110 -24 285 0 107 -4 201 -8 208 -5 7 -6 19 -3 27 3 9 -1 15 -9 15
-21 0 -27 16 -20 52 9 46 67 111 100 111 20 0 30 9 49 46 59 119 178 272 216
281 16 4 31 19 42 42 22 46 55 70 78 58 28 -15 65 11 68 48 2 24 10 36 28 42
13 5 40 25 58 44 31 30 109 82 129 85 4 1 7 -5 7 -11z m423 -125 c2 -21 2 -42
-1 -47 -3 -5 -5 -100 -6 -212 -1 -111 -4 -206 -8 -210 -5 -4 -8 108 -8 249 0
144 4 257 9 257 5 0 11 -17 14 -37z m2242 -485 c17 1 63 5 103 8 48 4 72 2 72
-5 0 -6 -11 -11 -24 -11 -29 0 -82 -16 -120 -37 -16 -9 -26 -11 -23 -6 4 6 -6
16 -21 24 -25 12 -32 15 -55 18 -5 0 -5 6 -2 12 4 6 14 7 24 3 9 -4 30 -7 46
-6z m1185 0 c15 -10 26 -10 53 0 41 15 131 16 122 2 -3 -5 -18 -10 -33 -10
-15 -1 -38 -7 -52 -15 -14 -8 -35 -14 -47 -15 -24 0 -31 -24 -12 -36 6 -3 9
-15 6 -25 -3 -10 -1 -22 4 -25 5 -3 6 -11 2 -17 -14 -22 -12 -58 3 -64 10 -4
12 -8 5 -13 -13 -7 -22 -208 -10 -216 4 -2 1 -17 -7 -33 -10 -20 -28 -33 -59
-44 -49 -16 -75 -4 -28 13 61 22 58 10 61 240 2 190 1 215 -15 232 -11 13 -25
17 -40 13 -16 -4 -23 -1 -23 10 0 18 42 20 70 3z m670 3 c0 -12 -85 -25 -150
-22 -88 4 -93 5 -98 19 -3 9 26 12 122 12 69 0 126 -4 126 -9z m-138 -91 c6 0
7 -7 3 -17 -12 -30 -16 -111 -5 -118 14 -9 12 -42 -2 -48 -10 -4 -10 -8 1 -15
8 -6 9 -12 3 -16 -6 -3 -9 -40 -7 -88 2 -45 1 -87 -2 -94 -2 -7 -19 -16 -36
-20 -18 -3 -38 -11 -44 -16 -9 -8 -13 -6 -13 5 0 9 12 18 29 22 16 3 33 14 37
23 4 9 9 100 10 202 1 102 3 194 4 205 2 18 3 18 7 -2 2 -13 9 -23 15 -23z
m-1689 10 c-3 -12 -8 -19 -11 -16 -5 6 5 36 12 36 2 0 2 -9 -1 -20z m-3326
-66 c-3 -3 -12 -4 -19 -1 -8 3 -5 6 6 6 11 1 17 -2 13 -5z m3353 -17 c0 -13
-5 -28 -11 -34 -7 -7 -12 -64 -13 -147 -2 -89 -7 -141 -15 -149 -6 -6 -29 -17
-51 -23 -33 -10 -40 -10 -40 2 0 8 9 14 20 14 12 0 32 11 45 25 21 20 25 34
25 82 0 44 -3 54 -12 45 -36 -36 -52 7 -16 45 16 17 23 38 24 73 3 50 18 90
34 90 6 0 10 -10 10 -23z m1376 -12 c3 -8 24 -20 45 -25 22 -6 54 -25 72 -42
18 -17 25 -26 17 -21 -38 26 -144 53 -206 53 -41 0 -63 4 -59 10 3 6 23 10 44
10 22 0 44 6 51 15 16 19 29 19 36 0z m-3911 -15 c-3 -5 -14 -10 -23 -10 -15
0 -15 2 -2 10 20 13 33 13 25 0z m2738 -14 c12 -8 41 -17 64 -21 22 -3 48 -14
57 -24 14 -16 13 -17 -17 -15 -18 1 -33 3 -34 4 -2 1 -6 3 -10 5 -26 7 -62 25
-68 34 -3 6 -35 11 -71 11 -36 0 -64 4 -64 10 0 15 117 12 143 -4z m-2468 -40
c8 4 15 1 15 -5 0 -6 -7 -11 -15 -11 -8 0 -18 -8 -24 -17 -5 -11 -7 -142 -5
-313 1 -162 4 -355 4 -427 1 -73 5 -133 9 -133 5 0 6 -12 4 -27 -11 -67 -10
-103 1 -104 6 0 -6 -7 -26 -14 -27 -10 -47 -11 -72 -4 -19 5 -38 9 -43 8 -11
-3 -63 10 -93 23 -14 6 -31 10 -38 9 -8 -1 -20 3 -27 9 -7 6 -24 12 -37 14
-13 1 -36 15 -51 30 -15 15 -32 24 -38 20 -6 -3 -17 3 -25 15 -8 12 -24 21
-36 21 -14 0 -18 5 -14 16 5 12 1 14 -16 8 -17 -5 -20 -3 -15 10 4 10 3 15 -3
11 -6 -3 -10 -1 -10 4 0 6 -7 11 -16 11 -10 0 -14 6 -10 15 3 9 -4 20 -17 27
-22 13 -27 14 -57 17 -13 1 -13 3 -1 10 13 8 13 12 0 27 -13 16 -12 16 9 5 12
-7 20 -16 17 -22 -4 -5 -2 -8 3 -7 5 2 40 -22 77 -52 79 -64 136 -101 185
-120 19 -7 40 -17 45 -21 6 -4 39 -15 75 -24 36 -8 76 -20 90 -25 14 -4 44
-11 68 -14 l43 -6 -7 536 -7 537 21 -21 c12 -12 28 -19 37 -16z m-481 -2 c23
-9 20 -24 -4 -24 -11 0 -20 7 -20 15 0 17 2 18 24 9z m2957 -43 c29 -35 26
-109 -6 -143 -25 -27 -75 -43 -112 -36 -16 3 -18 15 -21 97 -1 52 -1 100 2
106 3 8 22 9 61 5 43 -5 63 -12 76 -29z m1125 9 c10 0 14 -5 10 -15 -4 -10 1
-15 14 -15 13 0 18 5 14 15 -5 11 -2 13 10 9 22 -8 31 -69 17 -116 -10 -31
-20 -43 -48 -54 -19 -8 -47 -14 -62 -12 -26 3 -26 4 -29 97 -4 118 0 129 33
107 13 -9 32 -16 41 -16z m379 20 c3 -6 -1 -7 -9 -4 -18 7 -21 14 -7 14 6 0
13 -4 16 -10z m-4449 -37 c-4 -9 -2 -19 4 -23 15 -10 -5 -60 -25 -60 -8 0 -15
-4 -15 -10 0 -5 5 -10 10 -10 6 0 10 -6 10 -14 0 -8 5 -16 10 -18 15 -5 -17
-78 -33 -78 -21 0 -44 -49 -29 -59 10 -6 10 -15 2 -35 -14 -38 -13 -46 8 -47
16 -1 16 -2 0 -6 -10 -2 -18 -9 -18 -14 0 -5 8 -9 18 -9 16 -1 16 -1 0 -11
-14 -8 -30 -53 -33 -91 -1 -20 -70 -101 -106 -125 -40 -26 -42 -27 -55 -8 -18
25 -18 41 1 25 12 -10 20 -7 45 14 83 70 99 112 101 278 l1 104 31 10 c38 11
53 52 30 84 -11 16 -12 24 -3 35 9 11 15 36 19 78 1 4 8 7 17 7 11 0 14 -5 10
-17z m4189 -29 c1 -16 4 -35 9 -42 4 -7 0 -26 -8 -44 -9 -17 -16 -36 -16 -43
0 -34 -151 -70 -190 -45 -11 7 1 10 40 10 61 0 110 24 131 62 7 13 12 49 12
81 0 37 4 56 11 54 6 -2 11 -17 11 -33z m-1180 -1 c24 -56 -7 -133 -64 -162
-43 -23 -125 -28 -151 -10 -11 7 -5 9 25 8 74 -4 93 1 129 35 33 31 36 38 36
90 0 55 11 72 25 39z m-3505 -7 c0 -2 -7 -7 -16 -10 -8 -3 -12 -2 -9 4 6 10
25 14 25 6z m4967 -92 c-1 -2 -13 -1 -26 3 -16 4 -19 8 -10 14 12 7 45 -9 36
-17z m-5122 -24 c-3 -5 -11 -10 -16 -10 -6 0 -7 5 -4 10 3 6 11 10 16 10 6 0
7 -4 4 -10z m5178 -57 c-7 -2 -19 -2 -25 0 -7 3 -2 5 12 5 14 0 19 -2 13 -5z
m-5259 -170 c10 -53 24 -112 32 -131 7 -19 12 -38 9 -42 -3 -5 1 -10 7 -13 10
-4 11 -7 1 -18 -18 -18 -16 -34 2 -19 12 10 15 10 15 -3 0 -31 34 -58 85 -65
l50 -7 -2 -45 c-1 -25 -4 -59 -8 -76 -6 -27 1 -39 59 -111 37 -45 74 -84 82
-87 10 -4 14 -13 10 -22 -4 -10 -2 -13 6 -8 6 4 16 0 22 -8 16 -22 145 -103
228 -145 60 -29 75 -33 95 -24 13 6 32 11 41 10 10 0 12 -3 5 -6 -7 -2 -13
-19 -13 -36 -1 -18 -9 -86 -19 -152 -10 -70 -14 -127 -9 -137 5 -10 25 -19 51
-22 204 -25 217 -29 217 -50 0 -12 -8 -74 -17 -139 l-16 -119 -41 6 c-23 3
-144 19 -271 37 -126 17 -336 45 -465 63 l-235 32 -7 99 c-3 55 -14 226 -23
380 -8 154 -17 288 -19 298 -3 10 0 32 5 49 5 20 5 34 -1 38 -8 5 -40 418 -40
524 l0 46 73 0 74 0 17 -97z m116 -213 c0 -5 -5 -10 -11 -10 -5 0 -7 5 -4 10
3 6 8 10 11 10 2 0 4 -4 4 -10z m2002 -72 c4 -12 -37 -58 -52 -58 -6 0 -18 -7
-27 -16 -20 -17 -137 -102 -168 -121 -31 -19 -116 -59 -165 -79 -25 -10 -47
-21 -50 -24 -3 -4 -27 -1 -55 6 -27 6 -40 12 -27 13 30 1 176 57 232 89 76 43
172 108 230 156 57 47 76 54 82 34z m-1859 -25 c-4 -10 -2 -14 4 -10 6 4 10
-9 10 -34 0 -22 -4 -42 -9 -45 -4 -3 -6 -10 -3 -15 7 -10 -42 -35 -51 -26 -3
3 1 16 10 29 9 12 16 41 16 64 0 40 5 54 21 54 5 0 5 -7 2 -17z m214 -119 c9
-23 -13 -40 -32 -24 -12 10 -13 16 -4 26 15 18 28 18 36 -2z m52 -13 c8 -14 6
-25 -9 -44 -27 -33 -67 -40 -94 -15 l-21 19 25 -4 c37 -7 69 9 76 38 7 30 10
31 23 6z m755 -38 c18 -34 33 -65 46 -98 10 -25 12 -26 72 -19 l62 7 -16 -24
c-9 -13 -22 -22 -30 -21 -39 10 -104 10 -116 -1 -13 -10 -14 -8 -8 11 5 16 3
22 -7 22 -9 0 -17 -5 -19 -11 -2 -6 -17 -9 -33 -6 -28 4 -29 5 -7 12 24 8 31
45 8 45 -9 0 -14 14 -14 46 -1 26 1 51 4 55 11 18 44 8 58 -18z m386 -143 c9
-6 10 -10 3 -10 -6 0 -14 -13 -18 -29 -8 -38 -32 -58 -76 -65 -28 -4 -42 -1
-59 14 -23 20 -32 23 -60 21 -9 0 -10 2 -3 5 7 3 9 12 6 20 -7 20 4 17 30 -7
41 -39 147 -8 147 43 0 20 8 22 30 8z m-1163 -26 c-3 -3 -12 -4 -19 -1 -8 3
-5 6 6 6 11 1 17 -2 13 -5z m200 -90 c-3 -3 -12 -4 -19 -1 -8 3 -5 6 6 6 11 1
17 -2 13 -5z m189 -86 c5 -7 3 -8 -6 -3 -7 4 -15 2 -20 -5 -5 -8 -9 -7 -13 4
-8 19 28 23 39 4z"/>
<path d="M682 1530 c3 -8 -2 -21 -11 -28 -14 -11 -13 -12 9 -6 35 9 36 12 16
32 -15 13 -17 14 -14 2z"/>
<path d="M1020 1021 c0 -5 8 -19 18 -31 16 -20 19 -21 31 -6 12 14 11 16 -8
16 -12 0 -21 6 -21 15 0 8 -4 15 -10 15 -5 0 -10 -4 -10 -9z"/>
<path d="M680 700 c0 -5 5 -10 11 -10 5 0 7 5 4 10 -3 6 -8 10 -11 10 -2 0 -4
-4 -4 -10z"/>
<path d="M710 660 c0 -11 7 -20 15 -20 8 0 15 -7 15 -15 0 -8 5 -15 10 -15 17
0 11 20 -15 46 -24 24 -25 24 -25 4z"/>
<path d="M822 490 c-13 -21 -6 -25 18 -10 10 6 12 12 5 19 -7 7 -14 4 -23 -9z"/>
<path d="M860 465 c0 -8 5 -15 10 -15 6 0 10 7 10 15 0 8 -4 15 -10 15 -5 0
-10 -7 -10 -15z"/>
<path d="M2195 3315 c-15 -15 -24 -29 -21 -33 4 -3 19 6 33 21 35 34 25 45
-12 12z"/>
<path d="M1302 3239 c-6 -15 -17 -29 -24 -32 -10 -3 -10 -7 -1 -17 10 -11 14
-10 19 6 4 10 12 22 17 25 5 4 7 15 5 25 -4 16 -6 15 -16 -7z"/>
<path d="M3450 3184 c0 -15 22 -44 31 -39 14 9 11 19 -11 33 -11 7 -20 10 -20
6z"/>
<path d="M3871 3139 c0 -8 6 -24 14 -35 13 -16 16 -17 25 -4 7 11 5 16 -10 18
-10 2 -21 11 -23 20 -4 14 -5 14 -6 1z"/>
<path d="M3440 3130 c0 -5 5 -10 10 -10 6 0 10 5 10 10 0 6 -4 10 -10 10 -5 0
-10 -4 -10 -10z"/>
<path d="M3020 3068 c0 -10 -4 -18 -10 -18 -5 0 -10 -4 -10 -10 0 -17 14 -10
38 20 22 28 22 29 2 27 -12 -1 -20 -8 -20 -19z"/>
<path d="M3856 3082 c-3 -6 -1 -14 5 -17 15 -10 25 3 12 16 -7 7 -13 7 -17 1z"/>
<path d="M2291 3054 c0 -11 3 -14 6 -6 3 7 2 16 -1 19 -3 4 -6 -2 -5 -13z"/>
<path d="M4307 3054 c6 -15 23 -19 23 -5 0 5 -7 11 -14 14 -10 4 -13 1 -9 -9z"/>
<path d="M4280 3020 c0 -5 4 -10 9 -10 6 0 13 5 16 10 3 6 -1 10 -9 10 -9 0
-16 -4 -16 -10z"/>
<path d="M3710 3014 c1 -15 29 -48 36 -41 3 3 -3 16 -15 28 -12 13 -21 19 -21
13z"/>
<path d="M3700 2950 c0 -5 4 -10 9 -10 6 0 13 5 16 10 3 6 -1 10 -9 10 -9 0
-16 -4 -16 -10z"/>
<path d="M2830 2859 c0 -4 6 -21 14 -39 9 -22 16 -28 21 -20 4 7 3 15 -2 19
-5 3 -15 15 -21 26 -6 11 -12 17 -12 14z"/>
<path d="M648 2843 c6 -2 18 -2 25 0 6 3 1 5 -13 5 -14 0 -19 -2 -12 -5z"/>
<path d="M658 2823 c7 -3 16 -2 19 1 4 3 -2 6 -13 5 -11 0 -14 -3 -6 -6z"/>
<path d="M1984 2784 c3 -8 6 -18 6 -20 0 -2 4 -4 8 -4 15 0 9 29 -6 35 -10 4
-12 0 -8 -11z"/>
<path d="M4266 2778 c5 -22 3 -28 -10 -28 -9 0 -16 -4 -16 -10 0 -24 25 -10
59 33 12 15 12 17 -4 11 -10 -4 -21 -1 -26 7 -7 9 -8 5 -3 -13z"/>
<path d="M2820 2780 c0 -5 5 -10 10 -10 6 0 10 5 10 10 0 6 -4 10 -10 10 -5 0
-10 -4 -10 -10z"/>
<path d="M1960 2751 c0 -6 5 -13 10 -16 6 -3 10 1 10 9 0 9 -4 16 -10 16 -5 0
-10 -4 -10 -9z"/>
<path d="M5017 2734 c-26 -13 -52 -24 -60 -24 -7 0 -24 -11 -37 -25 -17 -18
-27 -22 -36 -14 -9 7 -20 6 -37 -6 -16 -10 -34 -14 -51 -9 -14 3 -41 3 -60 0
-29 -6 -37 -14 -60 -66 -15 -33 -31 -60 -37 -60 -17 0 -33 -48 -21 -63 9 -11
5 -31 -16 -88 -25 -67 -27 -86 -27 -209 1 -143 13 -191 65 -257 11 -14 17 -30
13 -37 -3 -6 -3 -8 1 -4 4 3 24 -5 44 -18 19 -14 47 -27 61 -30 14 -3 34 -9
43 -15 22 -11 64 -12 86 0 9 4 31 11 47 15 l30 6 -22 -19 c-18 -15 -20 -20 -8
-25 9 -3 15 0 15 9 0 8 5 15 10 15 6 0 10 6 10 13 1 6 25 30 54 52 30 22 53
43 51 46 -2 3 5 20 16 39 62 101 47 320 -21 320 -24 0 -31 10 -19 31 14 27 -3
52 -58 85 -64 38 -156 40 -222 6 l-43 -23 6 28 c12 49 58 105 101 123 22 9 67
22 100 29 97 21 155 78 155 154 0 46 -18 51 -73 21z m53 -13 c0 -12 -74 -71
-89 -71 -6 0 -11 -4 -11 -8 0 -11 -67 -35 -78 -28 -15 9 -131 -52 -157 -81
-13 -15 -27 -40 -30 -55 -4 -16 -10 -28 -14 -28 -7 0 -33 -68 -37 -95 0 -5 -4
-17 -8 -26 -4 -9 -8 -29 -10 -45 -2 -16 -5 -29 -6 -29 -6 0 -6 -231 0 -235 4
-3 11 -16 15 -30 7 -22 6 -23 -8 -11 -9 7 -15 17 -12 21 3 5 1 11 -4 14 -25
16 -30 225 -7 312 8 33 27 84 42 114 15 30 28 66 29 80 3 31 32 90 45 90 5 0
13 -7 18 -17 8 -14 15 -12 56 17 34 25 56 33 81 32 25 -2 40 4 57 22 13 13 40
29 60 36 21 6 40 16 43 21 8 12 25 12 25 0z m-143 -326 c28 -8 62 -25 75 -36
20 -18 21 -20 3 -14 -131 45 -181 44 -246 -4 -48 -35 -64 -33 -29 4 21 22 107
63 136 64 6 1 33 -6 61 -14z m-20 -88 c33 -29 74 -169 54 -181 -5 -4 -14 2
-20 11 -6 10 -11 14 -11 10 0 -5 9 -20 20 -34 24 -31 25 -49 5 -116 -19 -65
-23 -71 -63 -91 -39 -20 -59 -15 -96 23 l-27 29 26 28 c24 26 26 35 23 82 -4
39 -11 60 -30 80 -40 42 -50 93 -27 132 22 35 71 60 103 52 12 -2 31 -14 43
-25z m183 -74 c0 -18 -46 -17 -53 1 -4 11 2 14 24 14 17 -1 29 -6 29 -15z
m-87 -25 c-9 -15 -23 -8 -23 12 0 17 2 19 14 8 8 -7 12 -16 9 -20z m-293 -38
c0 -5 -8 -10 -17 -10 -15 0 -16 2 -3 10 19 12 20 12 20 0z m304 -27 c-1 -20 0
-42 4 -48 10 -16 11 -34 1 -41 -5 -3 -9 -12 -9 -20 0 -8 5 -12 10 -9 12 8 13
0 1 -23 -5 -9 -17 -34 -26 -54 -30 -71 -115 -113 -175 -88 -39 16 -39 32 0 18
47 -16 96 -2 124 35 33 44 46 97 46 190 0 58 3 77 14 77 9 0 12 -11 10 -37z
m-274 -72 c0 -10 -42 -23 -49 -15 -7 6 20 24 37 24 6 0 12 -4 12 -9z m39 -175
c-3 -3 -11 5 -18 17 -13 21 -12 21 5 5 10 -10 16 -20 13 -22z"/>
<path d="M4933 2093 c-18 -7 -16 -23 2 -23 8 0 15 7 15 15 0 8 -1 15 -2 14 -2
0 -9 -3 -15 -6z"/>
<path d="M2565 2722 c-11 -4 -20 -14 -20 -22 0 -8 -6 -16 -12 -16 -25 -3 -27
-4 -16 -15 8 -8 16 -6 30 8 22 23 47 53 42 52 -2 -1 -13 -4 -24 -7z"/>
<path d="M3826 2693 c5 -26 3 -33 -10 -33 -9 0 -16 -4 -16 -10 0 -18 16 -11
46 22 19 20 23 29 12 25 -11 -4 -21 0 -28 11 -7 13 -8 9 -4 -15z"/>
<path d="M3660 2581 c0 -6 5 -11 11 -11 5 0 8 -4 4 -9 -3 -5 -1 -12 4 -15 5
-3 17 7 27 22 15 24 15 25 1 13 -14 -11 -20 -11 -32 -1 -10 9 -15 9 -15 1z"/>
<path d="M1177 2563 c-10 -9 -9 -23 1 -23 5 0 9 7 9 15 0 17 -1 18 -10 8z"/>
<path d="M1206 2525 c4 -8 10 -15 15 -15 5 0 9 7 9 15 0 8 -7 15 -15 15 -9 0
-12 -6 -9 -15z"/>
<path d="M3640 2530 c0 -5 7 -10 15 -10 8 0 15 5 15 10 0 6 -7 10 -15 10 -8 0
-15 -4 -15 -10z"/>
<path d="M3948 2515 c-32 -27 -35 -35 -13 -35 8 0 15 5 15 11 0 7 8 18 17 25
10 7 16 15 13 17 -3 3 -17 -5 -32 -18z"/>
<path d="M2086 2485 c5 -19 2 -25 -10 -25 -9 0 -16 -4 -16 -9 0 -20 16 -19 37
3 22 22 22 23 2 39 -19 17 -19 16 -13 -8z"/>
<path d="M3226 2490 c9 -34 11 -35 31 -14 16 16 16 17 1 11 -11 -4 -21 0 -28
11 -9 14 -10 12 -4 -8z"/>
<path d="M3371 2472 c3 -20 -3 -32 -16 -32 -8 0 -15 -4 -15 -10 0 -14 7 -13
35 6 29 19 31 29 10 38 -8 3 -14 2 -14 -2z"/>
<path d="M3854 2456 c-13 -10 -25 -11 -35 -5 -8 5 -35 9 -61 9 -40 0 -50 -4
-64 -25 -15 -22 -23 -25 -80 -25 -34 0 -66 -5 -69 -10 -4 -7 -11 -8 -18 -2 -7
6 -33 11 -58 13 -38 3 -45 1 -41 -11 5 -13 3 -13 -10 -2 -11 9 -49 12 -134 10
l-119 -3 0 -34 c0 -31 4 -36 33 -43 17 -5 32 -12 32 -15 0 -22 -86 -253 -94
-250 -4 1 -19 30 -31 62 -78 210 -74 196 -57 201 48 15 64 42 42 69 -15 18
-120 21 -138 3 -8 -8 -15 -8 -26 1 -9 7 -40 11 -79 10 -57 -2 -64 -4 -59 -21
2 -10 -1 -18 -7 -18 -34 0 6 -27 65 -44 31 -9 51 -52 36 -76 -20 -33 -14 -65
23 -119 19 -28 35 -59 35 -68 1 -24 24 -53 43 -53 10 0 22 -19 32 -52 10 -29
21 -57 26 -62 16 -18 9 -72 -16 -124 -14 -29 -25 -54 -25 -56 0 -2 18 -13 40
-25 l39 -20 16 22 c8 12 15 27 15 34 0 17 17 17 24 1 3 -7 3 -2 0 12 -3 14 6
54 19 90 14 36 33 88 43 115 11 28 22 52 25 55 3 3 14 29 24 59 9 29 24 65 31
80 8 14 14 30 14 34 0 5 13 37 29 72 25 53 37 67 70 84 23 10 43 16 46 11 2
-4 22 -10 44 -14 l39 -6 4 -82 c3 -46 1 -87 -3 -93 -4 -5 -17 -49 -28 -98 -33
-134 -35 -137 -76 -137 l-36 0 3 -132 3 -133 33 -3 c27 -3 34 1 43 25 6 15 12
49 13 75 4 78 5 79 195 76 l166 -3 10 -70 c13 -90 23 -108 61 -103 31 3 38 22
49 123 3 28 8 69 11 93 5 37 3 43 -18 51 -13 5 -33 7 -46 5 l-23 -4 3 147 c2
91 7 147 13 147 6 -1 20 10 31 25 20 24 20 27 4 27 -9 0 -17 -7 -16 -15 1 -8
-7 -17 -16 -19 -15 -3 -18 4 -18 36 0 41 17 64 57 76 39 12 38 76 -1 76 -6 0
-19 14 -28 30 -19 34 -25 36 -54 16z m-4 -57 c0 -5 18 -9 40 -9 90 0 18 -28
-82 -32 -16 0 -28 -5 -28 -11 0 -6 -8 -3 -18 6 -28 25 -147 23 -187 -3 -29
-19 -29 -19 -61 1 -17 10 -39 16 -48 13 -11 -4 -16 -1 -16 11 0 14 5 16 28 10
15 -4 41 -7 57 -6 126 5 212 14 226 25 19 13 89 9 89 -5z m-960 -24 c7 -8 25
-15 40 -15 15 0 33 7 40 15 14 17 100 21 100 5 0 -5 -10 -10 -22 -10 -13 0
-40 -11 -61 -24 -40 -25 -73 -24 -94 1 -6 8 -25 15 -42 15 -19 1 -31 6 -31 15
0 18 54 17 70 -2z m500 6 c0 -12 -84 -24 -150 -22 -60 3 -65 5 -55 20 8 13
205 15 205 2z m-126 -117 c-9 -32 -21 -66 -25 -74 -5 -8 -18 -44 -29 -80 -36
-113 -61 -157 -82 -144 -12 8 -9 24 5 24 12 0 51 98 104 262 31 95 55 106 27
12z m524 53 c15 6 14 3 -2 -15 -11 -12 -15 -22 -9 -22 11 0 9 -152 -2 -169 -3
-6 -2 -11 3 -11 10 0 9 -30 -1 -47 -4 -6 -4 -14 0 -16 12 -8 6 -137 -8 -153
-14 -17 -204 -20 -214 -4 -4 6 29 10 93 10 l100 0 6 31 c3 17 6 118 7 223 0
105 3 186 5 179 3 -7 13 -9 22 -6z m-227 -79 c-10 -47 -18 -22 -13 37 4 43 6
46 12 23 4 -14 5 -41 1 -60z m164 -123 l0 -200 -69 -3 c-72 -3 -100 8 -78 30
7 7 12 20 12 31 0 10 4 16 9 13 4 -3 17 4 27 16 19 21 19 21 -2 10 -29 -15
-33 -9 -23 41 5 23 11 93 15 155 l7 113 51 -3 51 -3 0 -200z m-785 144 c0 -6
-4 -7 -10 -4 -5 3 -10 11 -10 16 0 6 5 7 10 4 6 -3 10 -11 10 -16z m26 -54
c19 -45 19 -45 -16 -45 -30 0 -42 21 -20 35 6 3 10 15 10 26 0 29 9 23 26 -16z
m596 -93 c-17 -33 -30 -81 -37 -137 -6 -48 -34 -94 -67 -109 -35 -17 -33 -9
-37 -143 -1 -18 -5 -33 -10 -33 -5 0 -8 44 -7 97 l1 98 30 5 c36 6 65 61 84
159 7 35 19 70 27 78 8 8 14 24 14 36 1 20 1 21 11 4 8 -14 6 -27 -9 -55z
m-572 28 c0 -5 -4 -10 -10 -10 -5 0 -7 -7 -4 -15 4 -8 1 -15 -6 -15 -6 0 -8 5
-5 10 3 6 1 10 -5 10 -7 0 -6 5 2 15 15 17 28 19 28 5z m75 -190 c3 -5 1 -10
-4 -10 -6 0 -11 5 -11 10 0 6 2 10 4 10 3 0 8 -4 11 -10z m22 -63 c5 -3 8 -18
7 -34 -1 -15 -3 -35 -3 -43 -1 -18 -40 -84 -46 -78 -3 2 5 28 16 58 11 30 18
63 16 75 -3 11 -8 31 -11 45 -6 23 -6 23 3 4 5 -12 13 -24 18 -27z m848 -8
c-11 -17 -49 -28 -62 -17 -23 19 -14 28 28 28 26 0 38 -4 34 -11z m-52 -134
c4 -39 3 -51 -3 -35 -8 26 -13 107 -6 99 2 -2 7 -31 9 -64z"/>
<path d="M3205 2440 c4 -6 11 -8 16 -5 14 9 11 15 -7 15 -8 0 -12 -5 -9 -10z"/>
<path d="M2510 2426 c0 -8 -7 -17 -16 -20 -8 -3 -12 -11 -9 -16 4 -7 16 -2 31
12 27 27 30 38 9 38 -8 0 -15 -6 -15 -14z"/>
<path d="M2054 2204 c3 -8 6 -18 6 -20 0 -3 5 -2 10 1 15 9 12 22 -6 29 -12 5
-15 2 -10 -10z"/>
<path d="M2030 2170 c0 -5 5 -10 10 -10 6 0 10 5 10 10 0 6 -4 10 -10 10 -5 0
-10 -4 -10 -10z"/>
<path d="M2610 2140 c7 -14 14 -26 15 -28 2 -2 14 8 28 22 15 14 22 26 18 26
-5 0 -14 -7 -21 -15 -11 -14 -15 -14 -33 2 -20 18 -20 18 -7 -7z"/>
<path d="M5208 2143 c-21 -5 -32 -33 -18 -47 7 -7 10 -5 10 6 0 9 10 24 22 32
22 16 19 18 -14 9z"/>
<path d="M1741 2130 c-1 -9 4 -21 10 -27 14 -14 3 -33 -19 -33 -12 0 -13 -3
-5 -11 8 -8 17 -5 34 12 19 19 20 24 7 33 -8 6 -17 18 -21 26 -5 13 -6 13 -6
0z"/>
<path d="M2590 2095 c0 -8 5 -15 10 -15 6 0 10 7 10 15 0 8 -4 15 -10 15 -5 0
-10 -7 -10 -15z"/>
<path d="M2895 2090 c5 -14 2 -20 -9 -20 -9 0 -16 -4 -16 -10 0 -5 7 -10 15
-10 8 0 15 5 15 11 0 6 7 9 15 5 13 -5 13 -2 -1 19 -20 30 -28 32 -19 5z"/>
<path d="M2021 2095 c0 -5 5 -20 13 -33 11 -21 14 -22 25 -8 11 13 11 16 -2
16 -9 0 -21 8 -26 18 -6 9 -10 13 -10 7z"/>
<path d="M2311 2049 c0 -8 6 -24 14 -35 13 -17 14 -17 15 -1 0 9 -4 17 -9 17
-5 0 -12 8 -14 18 -4 13 -5 14 -6 1z"/>
<path d="M2010 2031 c0 -6 5 -13 10 -16 6 -3 10 1 10 9 0 9 -4 16 -10 16 -5 0
-10 -4 -10 -9z"/>
<path d="M997 2003 c-10 -10 -8 -41 3 -48 6 -4 7 1 3 11 -4 11 1 22 12 30 15
11 16 14 4 14 -9 0 -19 -3 -22 -7z"/>
<path d="M2290 1990 c0 -5 5 -10 10 -10 6 0 10 5 10 10 0 6 -4 10 -10 10 -5 0
-10 -4 -10 -10z"/>
<path d="M2291 1905 c0 -5 4 -18 8 -28 6 -17 8 -17 20 -3 11 13 11 16 -2 16
-8 0 -18 6 -20 13 -3 6 -5 8 -6 2z"/>
<path d="M2270 1850 c0 -5 5 -10 10 -10 6 0 10 5 10 10 0 6 -4 10 -10 10 -5 0
-10 -4 -10 -10z"/>
<path d="M4500 1856 c0 -2 9 -6 20 -9 11 -3 20 -1 20 4 0 5 -9 9 -20 9 -11 0
-20 -2 -20 -4z"/>
<path d="M2715 1829 c4 -6 -1 -16 -11 -24 -11 -7 -15 -17 -11 -21 4 -5 19 5
32 20 30 35 30 36 4 36 -12 0 -17 -4 -14 -11z"/>
<path d="M3165 1786 c-16 -13 -27 -27 -24 -30 3 -3 18 8 34 24 35 36 31 38
-10 6z"/>
<path d="M2750 1790 c0 -5 5 -10 11 -10 5 0 7 5 4 10 -3 6 -8 10 -11 10 -2 0
-4 -4 -4 -10z"/>
<path d="M5340 1796 c0 -2 7 -6 15 -10 8 -3 15 -1 15 4 0 6 -7 10 -15 10 -8 0
-15 -2 -15 -4z"/>
<path d="M3170 1746 c0 -2 8 -10 18 -17 15 -13 16 -12 3 4 -13 16 -21 21 -21
13z"/>
<path d="M2691 1714 c0 -11 3 -14 6 -6 3 7 2 16 -1 19 -3 4 -6 -2 -5 -13z"/>
<path d="M5336 1704 c-16 -16 -13 -34 5 -34 6 0 8 4 4 9 -3 5 2 17 11 25 8 9
11 16 5 16 -5 0 -17 -7 -25 -16z"/>
<path d="M5205 1700 c-3 -5 1 -10 10 -10 9 0 13 5 10 10 -3 6 -8 10 -10 10 -2
0 -7 -4 -10 -10z"/>
<path d="M2710 1684 c0 -8 5 -12 10 -9 6 3 10 10 10 16 0 5 -4 9 -10 9 -5 0
-10 -7 -10 -16z"/>
<path d="M5240 1680 c0 -5 5 -10 10 -10 6 0 10 5 10 10 0 6 -4 10 -10 10 -5 0
-10 -4 -10 -10z"/>
<path d="M2676 1662 c-3 -6 -1 -14 5 -17 15 -10 25 3 12 16 -7 7 -13 7 -17 1z"/>
<path d="M1507 1640 c-6 -22 -25 -147 -32 -205 -21 -183 -20 -168 -6 -173 6
-2 11 9 11 25 0 16 9 96 21 177 11 82 18 160 16 175 l-3 26 -7 -25z"/>
<path d="M1977 1640 c3 -10 -2 -20 -12 -24 -9 -3 -13 -11 -10 -16 4 -7 16 -2
31 12 29 28 30 34 5 41 -14 3 -17 0 -14 -13z"/>
<path d="M5265 1650 c3 -5 8 -10 11 -10 2 0 4 5 4 10 0 6 -5 10 -11 10 -5 0
-7 -4 -4 -10z"/>
<path d="M2390 1613 c-1 -38 32 -59 44 -27 4 12 2 15 -9 11 -8 -4 -19 1 -24
11 -6 9 -11 12 -11 5z"/>
<path d="M2370 1550 c0 -5 7 -10 15 -10 8 0 15 5 15 10 0 6 -7 10 -15 10 -8 0
-15 -4 -15 -10z"/>
<path d="M2958 1523 c16 -30 15 -33 -10 -33 -16 0 -19 -3 -11 -11 14 -14 50 7
56 33 3 10 1 15 -4 12 -6 -3 -17 0 -26 8 -15 12 -15 11 -5 -9z"/>
<path d="M3240 1480 c0 -16 17 -20 28 -7 8 10 6 13 -9 14 -10 1 -19 -2 -19 -7z"/>
<path d="M3220 1446 c0 -9 5 -16 10 -16 6 0 10 4 10 9 0 6 -4 13 -10 16 -5 3
-10 -1 -10 -9z"/>
<path d="M3520 1435 c0 -8 7 -15 15 -15 8 0 15 7 15 15 0 8 -7 15 -15 15 -8 0
-15 -7 -15 -15z"/>
<path d="M3804 1417 c3 -10 6 -23 6 -29 0 -6 6 -6 15 2 17 14 21 35 4 24 -6
-3 -16 0 -21 7 -8 11 -8 10 -4 -4z"/>
<path d="M5183 1410 c-23 -9 -33 -50 -13 -50 6 0 10 6 10 14 0 8 10 22 22 30
25 17 16 20 -19 6z"/>
<path d="M3500 1400 c0 -5 5 -10 10 -10 6 0 10 5 10 10 0 6 -4 10 -10 10 -5 0
-10 -4 -10 -10z"/>
<path d="M3560 1400 c0 -5 5 -10 11 -10 5 0 7 5 4 10 -3 6 -8 10 -11 10 -2 0
-4 -4 -4 -10z"/>
<path d="M3780 1370 c0 -5 5 -10 10 -10 6 0 10 5 10 10 0 6 -4 10 -10 10 -5 0
-10 -4 -10 -10z"/>
<path d="M2217 1338 c4 -7 8 -17 8 -22 0 -5 6 -11 13 -13 16 -6 15 15 -2 33
-18 17 -30 18 -19 2z"/>
<path d="M2195 1290 c3 -5 14 -10 23 -10 15 0 15 2 2 10 -20 13 -33 13 -25 0z"/>
<path d="M2784 1258 c5 -21 3 -28 -9 -28 -15 0 -20 -12 -9 -23 3 -3 17 6 31
21 17 19 21 28 11 31 -7 2 -17 9 -21 15 -5 6 -6 -1 -3 -16z"/>
<path d="M5482 1220 c-17 -16 -27 -32 -23 -34 8 -5 40 25 55 52 11 20 1 14
-32 -18z"/>
<path d="M3060 1233 c1 -20 20 -37 29 -28 7 7 4 14 -9 23 -11 7 -20 9 -20 5z"/>
<path d="M3345 1177 c6 -21 4 -27 -9 -27 -9 0 -16 -4 -16 -10 0 -17 15 -11 40
15 13 14 20 28 17 32 -4 3 -7 3 -7 -2 0 -4 -7 -2 -16 6 -13 11 -14 9 -9 -14z"/>
<path d="M3040 1180 c0 -5 7 -10 15 -10 8 0 15 5 15 10 0 6 -7 10 -15 10 -8 0
-15 -4 -15 -10z"/>
<path d="M5180 1133 c-18 -7 -30 -23 -30 -40 0 -21 17 -15 23 7 3 11 16 24 29
29 12 6 16 10 8 10 -8 -1 -22 -3 -30 -6z"/>
<path d="M3030 931 c0 -6 5 -13 10 -16 6 -3 10 1 10 9 0 9 -4 16 -10 16 -5 0
-10 -4 -10 -9z"/>
<path d="M3005 900 c-3 -5 1 -10 9 -10 9 0 16 5 16 10 0 6 -4 10 -9 10 -6 0
-13 -4 -16 -10z"/>
<path d="M3736 835 c4 -8 10 -12 15 -9 14 8 10 24 -6 24 -9 0 -12 -6 -9 -15z"/>
<path d="M3707 806 c-4 -10 -1 -13 9 -9 7 3 14 9 14 14 0 14 -17 10 -23 -5z"/>
<path d="M3976 535 c2 -11 4 -23 4 -27 0 -15 20 -8 20 7 0 8 -4 15 -9 15 -5 0
-11 6 -14 13 -2 6 -3 3 -1 -8z"/>
<path d="M3950 490 c0 -5 5 -10 10 -10 6 0 10 5 10 10 0 6 -4 10 -10 10 -5 0
-10 -4 -10 -10z"/>
<path d="M4809 231 c7 -5 11 -13 7 -19 -3 -5 0 -15 8 -21 10 -8 16 -8 26 4 10
12 9 16 -4 21 -9 3 -13 10 -10 15 3 5 -5 9 -18 9 -17 0 -19 -3 -9 -9z"/>
<path d="M4296 214 c-8 -21 -9 -21 39 -13 26 4 31 7 15 8 -15 0 -31 6 -37 12
-7 7 -12 5 -17 -7z"/>
<path d="M4373 223 c15 -2 25 -9 22 -14 -4 -5 6 -9 22 -9 l28 0 -29 15 c-15 8
-38 14 -50 14 -15 -2 -13 -3 7 -6z"/>
<path d="M4645 210 c7 -12 85 -14 85 -2 0 4 -20 8 -45 9 -27 1 -43 -2 -40 -7z"/>
<path d="M4758 213 c7 -3 16 -2 19 1 4 3 -2 6 -13 5 -11 0 -14 -3 -6 -6z"/>
<path d="M1297 203 c-3 -5 -7 -21 -8 -38 -3 -20 1 -31 11 -33 11 -2 16 8 17
32 3 33 -10 56 -20 39z"/>
<path d="M4528 203 c17 -2 47 -2 65 0 17 2 3 4 -33 4 -36 0 -50 -2 -32 -4z"/>
<path d="M3800 181 c-23 -27 -22 -40 3 -34 22 6 47 29 47 45 0 14 -35 7 -50
-11z"/>
<path d="M3758 183 c7 -3 16 -2 19 1 4 3 -2 6 -13 5 -11 0 -14 -3 -6 -6z"/>
<path d="M356 171 c-3 -5 1 -11 9 -15 8 -3 12 -12 9 -21 -4 -10 0 -15 10 -15
21 0 21 46 0 54 -20 8 -22 8 -28 -3z"/>
<path d="M1990 169 c0 -7 -8 -18 -17 -25 -25 -17 -10 -28 16 -12 21 13 29 48
11 48 -5 0 -10 -5 -10 -11z"/>
<path d="M5430 166 c0 -8 63 -36 68 -31 8 8 -31 34 -50 35 -10 0 -18 -2 -18
-4z"/>
<path d="M980 149 c-386 -23 -424 -33 -95 -24 214 5 341 13 333 20 -10 9 -129
11 -238 4z"/>
<path d="M2956 138 c-9 -34 -8 -38 12 -38 13 0 18 6 16 23 -1 12 -3 25 -3 30
-2 16 -19 6 -25 -15z"/>
<path d="M4520 152 c0 -4 24 -8 52 -9 29 -1 54 -7 56 -13 3 -8 32 11 32 22 0
2 -31 5 -70 6 -38 1 -70 -1 -70 -6z"/>
<path d="M4810 141 c0 -16 26 -19 51 -5 24 13 23 13 -13 14 -21 0 -38 -4 -38
-9z"/>
<path d="M3664 122 c-17 -16 -16 -17 10 -20 38 -5 55 13 28 27 -16 9 -24 7
-38 -7z"/>
<path d="M3810 125 c0 -8 5 -15 10 -15 6 0 10 7 10 15 0 8 -4 15 -10 15 -5 0
-10 -7 -10 -15z"/>
<path d="M1553 113 c9 -2 23 -2 30 0 6 3 -1 5 -18 5 -16 0 -22 -2 -12 -5z"/>
<path d="M3350 112 c0 -5 21 -9 48 -9 37 -1 42 0 22 7 -33 11 -70 12 -70 2z"/>
<path d="M6260 100 c0 -5 11 -10 25 -10 14 0 25 5 25 10 0 6 -11 10 -25 10
-14 0 -25 -4 -25 -10z"/>
<path d="M6130 90 c0 -5 5 -10 10 -10 6 0 10 5 10 10 0 6 -4 10 -10 10 -5 0
-10 -4 -10 -10z"/>
<path d="M5230 79 c0 -5 5 -7 10 -4 6 3 10 8 10 11 0 2 -4 4 -10 4 -5 0 -10
-5 -10 -11z"/>
</g>
</svg>
